<?xml version="1.0" encoding="UTF-8"?>
<!DOCTYPE svg PUBLIC "-//W3C//DTD SVG 1.1//EN" "http://www.w3.org/Graphics/SVG/1.1/DTD/svg11.dtd">
<!-- Creator: CorelDRAW -->
<svg xmlns="http://www.w3.org/2000/svg" xml:space="preserve" width="215.9mm" height="279.4mm" style="shape-rendering:geometricPrecision; text-rendering:geometricPrecision; image-rendering:optimizeQuality; fill-rule:evenodd; clip-rule:evenodd"
viewBox="0 0 215.9 279.4"
 xmlns:xlink="http://www.w3.org/1999/xlink">
 <defs>
  <style type="text/css">
   <![CDATA[
    .fil6 {fill:none}
    .fil1 {fill:#342A2B}
    .fil5 {fill:#545353}
    .fil4 {fill:#8E1D23}
    .fil3 {fill:#EC222A}
    .fil2 {fill:#FDCBCC}
    .fil0 {fill:#FDFDFD}
   ]]>
  </style>
 </defs>
 <g id="Capa_x0020_1">
  <metadata id="CorelCorpID_0Corel-Layer"/>
  <g id="_321762384">
   <g>
    <polygon id="_321757824" class="fil0" points="96.461,52.2193 96.4425,56.2046 100.721,51.9012 101.113,49.2162 "/>
    <path id="_321757608" class="fil1" d="M118.972 53.5557l0.1313 1.6861c0,2.1447 5.5671,5.788 7.9849,5.9892 -0.192,-2.3075 -3.6316,-3.1234 -5.0852,-4.5636 -2.8383,-2.8125 0.2995,-6.7381 -2.2923,-7.4246l-0.7387 4.3129z"/>
    <path id="_321757680" class="fil0" d="M119.711 49.2428c2.5918,0.6865 -0.546,4.6121 2.2923,7.4246 1.4536,1.4402 4.8932,2.2561 5.0852,4.5636 -2.4178,-0.2012 -7.9849,-3.8445 -7.9849,-5.9892l-0.1313 -1.6861 0.7387 -4.3129zm-13.9157 -4.3156c0.2136,0.8922 0.3327,0.6272 0.3327,1.3309 0,0.746 -0.2634,0.7304 -0.488,1.3672l-0.8428 3.6238c2.5978,-0.6938 2.0788,-3.1672 3.6597,-4.3256 0.0054,0.0065 0.3327,0.6207 0.3327,0.6655 0,1.8252 -3.2542,5.3872 -4.7855,5.8616 -3.4563,1.0706 -5.988,3.0446 -7.5246,3.4549 0.459,0.6855 0.9981,0.8637 0.9981,1.6637l0 0.6654c0,1.0885 -0.9981,0.8762 -0.9981,2.6618l0 1.331c2.3007,-0.1915 2.8348,-1.5183 4.7246,-1.9297 1.9464,-0.4237 4.0166,-0.7322 6.2547,-0.7322l4.6579 0c4.3134,0 9.911,1.6485 12.7623,3.2079 1.8585,1.0166 9.4012,6.74 9.5291,6.7741 0,-2.763 1.6635,-7.1599 1.6635,-7.6529 0,-0.4281 -2.7647,-3.8471 -3.2459,-4.4066 -1.8058,-2.0992 -1.799,-2.7063 -3.2052,-4.7801 -1.6377,-2.4155 -4.1491,-8.7807 -7.1899,-8.7807l-0.6866 -0.1263 -4.9694 0.7917c-3.4552,0.5806 -8.3896,-1.6636 -9.6485,-1.6636 -0.1924,0 -0.9946,0.7645 -1.3308,0.9982z"/>
    <path id="_321757368" class="fil2" d="M140.064 64.8911c0,1.0249 2.0826,1.6636 2.9944,1.6636 1.0058,0 0.92,-0.3916 0.9278,-1.48l-1.5862 0.7963 -1.2806 -0.4404 3.2699 -7.527c1.7067,0.1421 2.223,3.9555 3.1815,1.9122 0.6275,-1.3377 -1.5145,-2.9103 -3.1815,-2.9103 -1.2371,0 -4.3253,7.2608 -4.3253,7.9856z"/>
    <path id="_321757656" class="fil3" d="M69.8625 62.5619c0,0.7962 1.2558,2.3857 1.6661,2.9986l1.3283 -0.6694c-0.1342,-0.5023 -1.6,-2.9947 -1.9963,-2.9947 -0.5445,0 -0.9981,0.1993 -0.9981,0.6655z"/>
    <path id="_321756744" class="fil2" d="M73.855 59.2346c0,1.3949 1.4496,4.0694 2.3191,4.6416l2.3387 -1.3143c0.5075,0.3398 1.9963,2.3449 1.9963,2.6618 0,0.5446 -0.1992,0.9982 -0.6654,0.9982 -0.746,0 -0.7304,-0.2633 -1.4022,-0.7367l-0.9268 1.0695c0.2226,0.4206 0.4572,1.3309 0.9981,1.3309 1.1433,0 3.6598,-1.1579 3.6598,-2.3291 0,-0.5566 -2.0774,-4.6583 -2.6616,-4.6583 -1.0786,0 -1.2195,1.1833 -2.9944,1.331 -0.1739,-0.7466 -1.8033,-3.66 -0.3327,-3.66 0.746,0 0.7303,0.2633 1.2664,0.5209l1.3953 -0.5209 0 -0.6656c-1.3672,-0.1137 -0.7432,-0.3326 -1.9963,-0.3326 -0.9863,0 -2.9943,0.965 -2.9943,1.6636z"/>
    <path id="_321756816" class="fil3" d="M64.2064 66.2219l5.3234 6.9874c0.3038,-0.2035 0.9981,-0.5416 0.9981,-0.9982 0,-0.6591 -4.6005,-6.6546 -4.9906,-6.6546 -0.5395,0 -1.0586,0.3991 -1.3309,0.6654z"/>
    <path id="_321756576" class="fil2" d="M71.5286 65.5605c-0.4103,-0.6129 -1.6661,-2.2024 -1.6661,-2.9986 0,-0.4662 0.4536,-0.6655 0.9981,-0.6655 0.3963,0 1.8621,2.4924 1.9963,2.9947l-1.3283 0.6694zm-2.9969 -2.6659l0 0.6655c0,2.1774 4.6483,5.1702 3.9924,7.9856 0.7624,-0.0635 1.9963,-0.3073 1.9963,-0.9982 0,-0.2071 -2.3576,-3.8714 -2.6616,-4.3256 0.2678,-0.1861 0.8214,-0.6654 0.9981,-0.6654 1.3394,0 2.1831,2.6711 3.6528,3.6418l1.005 -0.3145 0 -0.6655c-2.1431,-0.5722 -4.8467,-7.6528 -5.9887,-7.6528 -1.299,0 -2.9943,1.2697 -2.9943,2.3291z"/>
    <path id="_321757200" class="fil2" d="M144.389 67.2201l4.3433 2.3361 0.3766 -0.9813 -0.2322 0.3406 -2.2948 -1.0713 -0.1425 -0.4962 2.2467 -3.055 0.2987 0.2891 0.6594 1.0989 0.7335 -2.1209c-3.3115,0.7715 -0.7493,-1.4344 -0.3328,-2.9946 1.3877,0.1155 2.1831,0.3298 2.4577,1.7633l0.7753 -1.2549 -4.5638 -2.1721c0,2.734 -2.6514,7.4326 -4.3251,8.3183z"/>
    <path id="_321756936" class="fil2" d="M155.701 67.2201l-1.9963 -0.9982c0.2779,-0.4149 1.602,-2.6618 1.9963,-2.6618 0.5445,0 0.9981,0.1992 0.9981,0.6655 0,1.332 -0.6858,1.6536 -0.9981,2.9945zm-6.3214 2.3292l0.0285 0.5965 1.9677 0.7344c0.0693,-0.8336 1.4411,-3.9927 1.9962,-3.9927 0.8898,0 0.984,0.4802 1.3309,0.9981 -0.7488,1.4151 -0.9885,2.8805 -2.6617,3.3273l-0.2013 0.3393 2.1975 0.9916c0.0508,-2.2786 1.6636,-2.3025 1.6636,-3.66l0 -0.9982c0.9199,-0.2456 2.3289,-1.8815 2.3289,-2.6619l0 -0.6654c0,-1.0659 -2.6879,-2.5533 -3.9925,-2.6619 -0.0524,2.3531 -2.7715,7.1492 -4.6578,7.6529z"/>
    <path id="_321756960" class="fil3" d="M59.2159 70.5475c0,0.7498 2.0364,2.6618 2.3289,2.6618 0.2831,0 0.9981,-0.7151 0.9981,-0.9982 0,-0.2906 -2.0383,-2.3291 -2.3289,-2.3291 -0.5446,0 -0.9981,0.1992 -0.9981,0.6655z"/>
    <path id="_321757224" class="fil2" d="M156.033 74.5402c2.3592,-0.1963 5.227,-5.7596 8.0867,-6.1091l-1.7652 -1.211c-0.0428,1.9222 -2.1368,3.9189 -3.6597,4.3256 0.2751,-1.1812 2.3288,-4.1659 2.3288,-4.991 0,-1.0917 -0.6711,-1.2483 -1.6635,-1.331 0.5827,2.5014 -2.6562,6.437 -3.3271,9.3165z"/>
    <path id="_321756552" class="fil2" d="M158.695 75.8712c0.2642,0.9899 2.7073,3.3273 3.327,3.3273 0.9203,0 0.8001,-0.2567 0.9981,-0.9982l-0.9981 0c-0.6426,0 -1.3308,-0.5933 -1.3308,-0.9982 0,-1.2989 1.8195,-2.7634 2.6576,-3.3248l0.7407 1.3997 0.9156 -1.0504 -1.3972 -1.0949 2.5874 -2.3791 1.15 2.124c2.6186,-0.6993 -1.7288,-3.411 -2.6616,-3.6601 -0.1564,1.8793 -4.1868,6.5047 -5.9887,6.6547z"/>
    <path id="_321756984" class="fil2" d="M57.8851 76.8694c0.5915,-0.5915 -0.5916,0.5915 0,0zm3.6597 -3.6601c-0.2925,0 -2.3289,-1.912 -2.3289,-2.6618 0,-0.4663 0.4535,-0.6655 0.9981,-0.6655 0.2906,0 2.3289,2.0385 2.3289,2.3291 0,0.2831 -0.715,0.9982 -0.9981,0.9982zm8.9831 -0.9982c0,0.4566 -0.6943,0.7947 -0.9981,0.9982l-5.3234 -6.9874c0.2723,-0.2663 0.7914,-0.6654 1.3309,-0.6654 0.3901,0 4.9906,5.9955 4.9906,6.6546zm-8.3177 -4.991c2.1046,0.1752 4.8729,5.3209 5.8391,6.9375l-0.183 0.7154c-2.3958,-0.1994 -5.2293,-6.3219 -7.3196,-6.3219l-0.3327 0c-0.7498,0 -2.6616,2.0365 -2.6616,2.3291 0,2.6476 5.5772,4.4482 5.6559,7.9855 -1.5652,-0.1302 -6.854,-4.7256 -7.1014,-6.47l-1.288 1.217 3.0662 3.2567c-1.7214,-0.1433 -2.8539,-1.331 -4.3252,-1.331 -1.011,0 -1.1296,0.5772 -1.3309,1.331 1.8987,0.0422 6.9033,4.7629 7.3196,6.3219 1.5552,-1.1395 -2.5782,-3.7084 -3.6598,-5.3237 2.0184,0.1679 5.2467,2.6618 6.3214,2.6618 0.9544,0 2.5468,-1.9933 3.0411,-2.7017l-3.1124 -3.6915 1.1412 -0.9996 3.5881 3.4c0.8288,-0.555 4.9906,-3.7421 4.9906,-4.6582l0 -0.3327c0,-0.6998 -4.7722,-7.3201 -5.6561,-7.3201 -1.4033,0 -3.709,1.933 -3.9925,2.9945z"/>
    <path id="_321756672" class="fil2" d="M169.342 74.5402l1.9213 1.509 -8.034 3.8913 -0.002 0.3984 3.1858 2.8215 0.2673 -0.3019 0 -0.6654 -0.2266 0.271 -1.7465 -1.8838 8.2945 -4.0437c-0.3153,-0.4709 -3.5845,-4.7243 -3.6598,-1.9964z"/>
    <path id="_321756768" class="fil3" d="M172.336 82.1931c0.2679,0.1861 0.8214,0.6654 0.9981,0.6654 0.289,0 1.9962,-1.7074 1.9962,-1.9964 0,-0.5445 -0.1992,-0.9982 -0.6653,-0.9982 -0.4749,0 -2.0477,1.9091 -2.329,2.3292z"/>
    <path id="_321755976" class="fil2" d="M172.336 82.1931c0.2813,-0.4201 1.8541,-2.3292 2.329,-2.3292 0.4661,0 0.6653,0.4537 0.6653,0.9982 0,0.289 -1.7072,1.9964 -1.9962,1.9964 -0.1767,0 -0.7302,-0.4793 -0.9981,-0.6654zm-5.656 1.3308l1.4015 2.0682 3.3277 -3.1376 0.9268 1.0694c-0.326,0.487 -2.9944,2.9743 -2.9944,2.9946 0,1.011 0.5771,1.1297 1.3309,1.331 0.5952,-2.2293 6.3213,-4.876 6.3213,-6.6546 0,-0.7498 -2.0363,-2.6619 -2.3288,-2.6619 -2.4599,0 -4.8447,4.921 -7.985,4.9909z"/>
    <path id="_321755784" class="fil3" d="M45.9076 86.1858l2.9943 1.6637c0.304,-0.2035 0.9982,-0.5416 0.9982,-0.9982 0,-0.529 -2.6388,-1.9964 -2.6617,-1.9964 -1.0165,0 -0.9653,0.5938 -1.3308,1.3309z"/>
    <path id="_321756192" class="fil2" d="M49.5674 80.8621c0.3467,-0.5178 0.441,-0.9982 1.3308,-0.9982 0.5417,0 2.6617,1.5889 2.6617,1.9964 0,0.6427 -0.5932,1.331 -0.9981,1.331 -1.2594,0 -2.4575,-1.5273 -2.9944,-2.3292zm-0.9981 0.6655c0,1.6208 6.369,4.3407 6.9868,6.6546l0.6654 0c0.2136,-0.8923 0.3327,-0.6272 0.3327,-1.3309 0,-0.4345 -2.9111,-2.2093 -3.7337,-3.4013l1.4676 -1.3297 3.7256 3.1668 0.8695 -1.4304c-1.9287,-0.1605 -6.8794,-5.3237 -7.6523,-5.3237 -0.9792,0 -2.6616,1.9601 -2.6616,2.9946z"/>
    <path id="_321755808" class="fil3" d="M177.992 89.1804l0.3328 1.331c0.8345,-0.0696 2.9943,-0.9686 2.9943,-1.6637 0,-0.5446 -0.1991,-0.9982 -0.6653,-0.9982 -1.2795,0 -1.3195,0.9725 -2.6618,1.3309z"/>
    <path id="_321755928" class="fil2" d="M49.9001 86.8513c0,0.4566 -0.6942,0.7947 -0.9982,0.9982l-2.9943 -1.6637c0.3655,-0.7371 0.3143,-1.3309 1.3308,-1.3309 0.0229,0 2.6617,1.4674 2.6617,1.9964zm-5.3233 0.6655c1.4471,0.0322 7.6522,3.6657 7.6522,4.6582 0,0.5446 -0.1991,0.9982 -0.6654,0.9982 -0.5298,0 -7.3445,-3.1728 -7.6523,-4.3255l-0.6653 0c0.0519,2.3307 3.4945,3.919 4.623,5.8625l-6.4841 -1.3223 -0.8006 1.7817c1.5606,-0.3306 8.4569,2.5563 8.6504,4.3255l0.3657 0.1776 0.561 -1.7079 -2.248 -1.5211 2.6521 0.3895c0.9087,0.1535 0.3649,-0.0187 1.1801,-0.4971l-2.1782 -2.4975c1.4673,0.1222 1.4557,0.6655 2.3289,0.6655 0.651,0 1.9288,-2.8486 1.8545,-3.4206l-3.8507 -2.2358c0.3125,-1.3414 0.9981,-1.5511 0.9981,-2.3292l0 -0.3327c0,-1.1391 -2.8847,-2.6619 -3.6598,-2.6619 -1.0111,0 -2.4364,3.0263 -2.6616,3.9929z"/>
    <path id="_321756096" class="fil3" d="M180.986 94.8368l0.3943 1.4799 2.9328 -1.1471c-0.0721,-3.2369 -1.4005,-0.7817 -3.3271,-0.3328z"/>
    <path id="_321756048" class="fil2" d="M180.986 94.8368c1.9266,-0.4489 3.255,-2.9041 3.3271,0.3328l-2.9328 1.1471 -0.3943 -1.4799zm-2.9944 -5.6564c1.3423,-0.3584 1.3823,-1.3309 2.6618,-1.3309 0.4662,0 0.6653,0.4536 0.6653,0.9982 0,0.6951 -2.1598,1.5941 -2.9943,1.6637l-0.3328 -1.331zm-4.6578 1.6636l-1.0389 -0.3197 0.5209 1.5962 4.5223 -2.28 0.6121 1.5935 -4.2135 2.2264 2.5294 3.8145 0.3948 -0.9744c2.0562,-0.0458 2.2127,-0.9982 3.327,-0.9982 0.2961,0 0.6655,0.3694 0.6655,0.6655 0,1.5527 -2.6567,1.9963 -4.3718,2.0117l0.7119 2.3138c0.2134,-0.057 3.5631,-2.2404 4.0724,-2.582 0.4558,-0.3059 3.6687,-1.5951 4.7935,-2.1763l-1.879 -4.2254 -0.6654 0c-0.2572,0.9634 -6.1208,3.9927 -7.3196,3.9927 -0.681,0 -0.6117,-0.6854 -0.6654,-1.3309 0.8854,-0.2365 6.9869,-3.5435 6.9869,-4.6582l0 -0.6655c0,-0.6795 -1.078,-2.3292 -1.9963,-2.3292 -1.172,0 -6.3972,3.445 -6.9868,4.3255z"/>
    <path id="_321756312" class="fil0" d="M117.772 104.486l3.6598 0c0.1733,2.0821 3.0075,2.6902 4.3251,4.6583l1.0382 0.7137 0.9581 -0.7137 0 -0.3327 0.9981 -0.9982 0 -0.3328 0.9981 -0.9982c1.5834,-2.9926 1.6636,-3.7922 1.6636,-8.3183 1.6827,-0.8074 1.9963,-0.3085 1.9963,-2.9945l0.0175 -3.9644 0.6478 -0.3612 1.3309 -1.3308c0,-2.4083 0.6163,-2.9439 -1.3963,-2.8998l-1.9308 4.8962c-0.1035,-0.3903 -0.3327,-0.907 -0.3327,-0.9982 0,-1.8618 0.9981,-3.1106 0.9981,-3.6601l0 -0.3328c0,-1.1826 -3.5728,-4.3254 -6.5194,-4.0844l3.42 2.8091 -0.2276 0.2771 -0.9981 0c-1.2183,0 -0.9953,-1.3308 -2.9944,-1.3308l-1.3308 0c-0.8986,0 -0.9174,0.1588 -1.6636,0.3326 0.5695,2.1329 2.9944,0.1232 2.9944,2.3292l0 0.3327c0,1.0781 -1.4459,1.9964 -2.6617,1.9964l-0.3327 0c-0.7758,0 -1.6635,-0.8878 -1.6635,-1.6636l0 -0.9983c-1.3265,0.1104 -1.6635,0.6352 -1.6635,1.9965l0 0.9982c1.1619,0.2707 1.1203,0.6654 2.3289,0.6654l2.3289 0 0 0.6654 -2.9943 0c-1.1212,0 -2.329,-0.588 -2.329,-1.6636l0 -1.3309c0,-1.1471 0.2461,-1.2884 0.3327,-2.3292l-1.3308 0c-1.2324,0 -1.5028,-0.3246 -2.0702,-1.0721l1.4048 -1.2569 4.5061 0.1275 1.1499 -2.1239c-2.7187,-0.6334 -6.178,-0.511 -8.5844,-1.397 -1.9286,-0.71 -5.0281,-2.2631 -7.7182,-2.2631l-4.6579 0c0.3612,1.3528 3.2155,2.028 4.4606,2.8592 1.9082,1.2739 2.7256,2.4822 4.1898,3.4627 0,2.1728 0.6654,2.1133 0.6654,3.9928l0 0.3327c0,2.9922 -1.6635,5.4914 -1.6635,8.651l0 0.6655c0,0.8468 1.131,1.5338 1.6734,2.1331l1.9496 0.1402 4.6946 -2.9388c-0.383,1.4345 -5.397,4.991 -6.3214,4.991l-0.6655 0c-4.0296,0 -3.1209,-2.598 -5.9887,-2.6619 0.4461,-1.6704 1.1622,-0.8342 1.9162,-3.7401 0.4531,-1.7467 1.7437,-1.978 1.7437,-3.9126l-0.0111 -1.0487 -1.9852 0.3831c0.4434,-1.6606 1.6635,-1.4128 1.6635,-2.6618l0 -0.3327c0,-1.4783 -0.7828,-2.072 -1.6635,-2.6618 -0.4464,0.9303 -0.6413,2.3291 -1.9962,2.3291l-0.3328 0c-1.8307,0 -0.467,-2.9947 -1.9962,-2.9947 -0.5445,0 -0.9981,0.1993 -0.9981,0.6656 0,1.6866 1.873,1.9521 2.329,3.66 -0.3903,0.1035 -0.907,0.3327 -0.9982,0.3327 -3.0663,0 -2.0627,-2.2549 -4.6579,-3.9927 -0.7193,0.3805 -1.6635,0.5797 -1.6635,1.6636 0,0.38 2.6783,3.2044 3.3271,5.9891 -0.2419,0.4572 -1.3309,2.2899 -1.3309,2.6619l0 2.3292c0,1.4395 0.8317,4.5911 2.329,4.9909 0.0798,-0.9591 0.8389,-2.9945 1.6635,-2.9945 0.5446,0 0.9981,0.1991 0.9981,0.6654 0,0.7999 -0.539,0.978 -0.9981,1.6636 0.1385,1.6644 0.7925,5.6565 2.329,5.6565 0.7666,0 0.9981,-0.2315 0.9981,-0.9982l0 -0.3328c0,-1.7293 -1.929,-0.3065 -1.9962,-3.3273 1.6433,0.4388 0.9642,1.2765 3.0565,1.6177 1.2512,0.2041 2.552,-0.2868 4.2629,-0.2868 1.1041,0 0.6947,0.6655 1.3309,0.6655 1.1145,0 3.1594,-2.0231 5.9887,-0.6655z"/>
    <polygon id="_321756432" class="fil2" points="186.446,99.435 177.912,101.84 178.325,103.821 178.928,103.797 179.388,103.011 187.043,100.51 186.643,102.157 188.1,102.113 186.643,97.4987 185.598,97.5194 "/>
    <path id="_321755880" class="fil2" d="M38.0762 101.432c1.4794,-0.2436 8.8085,2.0619 9.1622,3.3867 1.2318,-0.329 1.8843,-3.3127 1.9963,-4.6583l-0.6654 0c0,1.0263 -0.1413,2.6619 -0.9981,2.6619 -0.1491,0 -2.9824,-1.1731 -3.6599,-1.3309l0.0736 -0.8817 0.9437 -0.8326 -2.0154 -0.6149 -0.0616 1.8127 -2.9327 -1.1471 0 -1.331c0,-0.9205 0.2567,-0.8003 0.9981,-0.9982l0 -0.6655 -1.3197 0.0037 -1.5211 4.5952z"/>
    <path id="_321755352" class="fil2" d="M180.986 105.484l-0.3326 0c-0.8986,0 -0.9174,-0.1589 -1.7312,-0.3161l1.0657 4.6417 1.2691 0.0242 -0.9179 -2.9318 4.0419 -0.7355 -0.3836 1.7145 1.6466 -0.4006 0 -0.6654 -0.6655 0 -0.0316 -0.7686 3.3587 -0.8951c0.11,1.3218 0.3327,0.8015 0.3327,1.6637 0,0.7621 -0.1128,0.3869 -0.3327,1.3309 2.7439,-0.2284 0.3971,-4.4563 -0.3327,-4.991 -0.4094,1.1311 -5.4061,2.3291 -6.9869,2.3291z"/>
    <path id="_321755424" class="fil1" d="M121.432 106.15l-0.3339 -1.2962 -3.3259 -0.3675c-2.8293,-1.3576 -4.8742,0.6655 -5.9887,0.6655 -0.6362,0 -0.2268,-0.6655 -1.3309,-0.6655 -1.7109,0 -3.0117,0.4909 -4.2629,0.2868 -2.0923,-0.3412 -1.4132,-1.1789 -3.0565,-1.6177 0.0672,3.0208 1.9962,1.598 1.9962,3.3273l0 0.3328c0,0.7667 -0.2315,0.9982 -0.9981,0.9982 -1.5365,0 -2.1905,-3.9921 -2.329,-5.6565 0.4591,-0.6856 0.9981,-0.8637 0.9981,-1.6636 0,-0.4663 -0.4535,-0.6654 -0.9981,-0.6654 -0.8246,0 -1.5837,2.0354 -1.6635,2.9945 -1.4973,-0.3998 -2.329,-3.5514 -2.329,-4.9909l0 -2.3292c0,-0.372 1.089,-2.2047 1.3309,-2.6619 -0.6488,-2.7847 -3.3271,-5.6091 -3.3271,-5.9891 0,-1.0839 0.9442,-1.2831 1.6635,-1.6636 2.5952,1.7378 1.5916,3.9927 4.6579,3.9927 0.0912,0 0.6079,-0.2292 0.9982,-0.3327 -0.456,-1.7079 -2.329,-1.9734 -2.329,-3.66 0,-0.4663 0.4536,-0.6656 0.9981,-0.6656 1.5292,0 0.1655,2.9947 1.9962,2.9947l0.3328 0c1.3549,0 1.5498,-1.3988 1.9962,-2.3291 0.8807,0.5898 1.6635,1.1835 1.6635,2.6618l0 0.3327c0,1.249 -1.2201,1.0012 -1.6635,2.6618l1.9852 -0.3831 0.0111 1.0487c0,1.9346 -1.2906,2.1659 -1.7437,3.9126 -0.754,2.9059 -1.4701,2.0697 -1.9162,3.7401 2.8678,0.0639 1.9591,2.6619 5.9887,2.6619l0.6655 0c0.9244,0 5.9384,-3.5565 6.3214,-4.991l-4.6946 2.9388 -1.9496 -0.1402c-0.5424,-0.5993 -1.6734,-1.2863 -1.6734,-2.1331l0 -0.6655c0,-3.1596 1.6635,-5.6588 1.6635,-8.651l0 -0.3327c0,-1.8795 -0.6654,-1.82 -0.6654,-3.9928 -1.4642,-0.9805 -2.2816,-2.1888 -4.1898,-3.4627 -1.2451,-0.8312 -4.0994,-1.5064 -4.4606,-2.8592l4.6579 0c2.6901,0 5.7896,1.5531 7.7182,2.2631 2.4064,0.886 5.8657,0.7636 8.5844,1.397l-1.1499 2.1239 -4.5061 -0.1275 -1.4048 1.2569c0.5674,0.7475 0.8378,1.0721 2.0702,1.0721l1.3308 0c-0.0866,1.0408 -0.3327,1.1821 -0.3327,2.3292l0 1.3309c0,1.0756 1.2078,1.6636 2.329,1.6636l2.9943 0 0 -0.6654 -2.3289 0c-1.2086,0 -1.167,-0.3947 -2.3289,-0.6654l0 -0.9982c0,-1.3613 0.337,-1.8861 1.6635,-1.9965l0 0.9983c0,0.7758 0.8877,1.6636 1.6635,1.6636l0.3327 0c1.2158,0 2.6617,-0.9183 2.6617,-1.9964l0 -0.3327c0,-2.206 -2.4249,-0.1963 -2.9944,-2.3292 0.7462,-0.1738 0.765,-0.3326 1.6636,-0.3326l1.3308 0c1.9991,0 1.7761,1.3308 2.9944,1.3308l0.9981 0 0.2276 -0.2771 -3.42 -2.8091c2.9466,-0.241 6.5194,2.9018 6.5194,4.0844l0 0.3328c0,0.5495 -0.9981,1.7983 -0.9981,3.6601 0,0.0912 0.2292,0.6079 0.3327,0.9982l1.9308 -4.8962c2.0126,-0.0441 1.3963,0.4915 1.3963,2.8998l-1.0536 1.0536 0.3216 0.2107 0.732 -0.5989c5.3695,0 12.6022,-1.2125 15.9699,-2.9946l0.3327 -0.6655c-2.7027,-1.8099 -6.2714,-5.0041 -8.8648,-6.4402 -3.8982,-2.1585 -7.4378,-2.3961 -7.4378,-7.8672 0,-2.0271 0.2052,-3.1181 0.3347,-4.989 0.11,-1.5899 1.3288,-3.6037 1.3288,-4.3275 0,-0.7603 -5.7162,-7.289 -6.8085,-9.4948 -1.1194,-2.2604 -4.6303,-9.4708 -7.1652,-9.4708l-2.3289 0c-0.4062,0 -2.4471,0.9982 -4.6579,0.9982l-1.0171 0.1168 -5.3043 -0.7823c-0.5559,-0.8302 -1.2919,-1.3309 -2.6617,-1.3309 -0.816,0 -4.3887,3.9362 -5.591,4.7232 -1.0525,0.689 -5.1916,3.8027 -5.721,4.5933 0,3.8778 -0.5074,6.8979 -1.0217,10.2911 -0.5578,3.6806 -0.8141,6.3454 -4.9479,6.4019l-8.3368 3.2708c1.1447,-0.0952 5.3669,-1.7037 7.7896,-2.1917 3.8286,-0.7712 4.6315,-0.648 8.6542,0.0541 2.8612,0.4993 1.7995,0.5809 3.6736,1.3171 0.9127,0.3585 3.3617,0.5848 4.2532,0.7375 2.9069,0.4979 6.4091,1.4941 8.5739,1.7402 2.9478,0.3351 5.9847,0.5841 8.5396,1.4417 3.2111,1.0779 5.5886,0.8257 8.6874,1.6265 2.3525,0.608 4.6998,2.2 6.7234,3.2581 1.7865,0.9343 5.9295,1.7613 5.9867,4.3275 -2.4952,-0.2076 -7.4239,-3.6817 -10.3296,-4.3098 -3.9613,-0.8562 -7.376,-1.9275 -11.8163,-2.823 -5.4573,-1.1005 -7.3179,0.4481 -13.0771,-1.5621 -1.7388,-0.607 -3.49,-2.1043 -5.0521,-2.2676 -1.8624,-0.1946 -6.186,-1.3485 -6.3039,-1.3485l-2.9943 0c-1.2324,0 -1.5029,0.3247 -2.0097,1.1239l4.6713 0.5398c-0.0492,2.2111 -0.4039,1.6618 -2.6716,1.6536 -2.2197,-0.0079 -1.9592,0.5006 -3.5392,1.1189 -2.0523,0.8029 -5.5533,0.8387 -6.0997,2.8776l6.9897 -0.3223 1.3283 -0.6696c-0.0658,2.9571 -2.9943,1.8797 -3.0943,7.5962l-7.2196 -2.6053c1.8041,2.4626 6.1249,1.8847 8.6903,5.6605l-0.3726 4.6542c-0.0507,0.515 1.0473,1.9057 1.2404,2.3339l0.4232 6.3172c1.528,0.8086 2.1775,1.8469 2.6616,3.66l0.3327 0.6655 0.3327 0.3327 0.6655 0.9982 0.3326 0.3327 0.3327 0.3328 0.3328 0.6654 0.3326 0.3328 0.6655 0.9982 0 0.3327 0.6654 0.6654c1.3932,-0.6164 4.2714,7.3201 11.9774,7.3201l1.3308 0c2.7275,0 5.769,-1.5911 6.3215,-3.6601 -1.0959,0.2554 -3.5058,1.6638 -4.658,1.6638 -1.2063,0 -2.093,-1.393 -2.9955,-2.0042l-2.6604 0.3404c-1.3507,0.2161 -0.9981,-1.5302 -0.996,-2.6662l-3.3292 -1.9919c0.3467,-0.5179 0.441,-0.9982 1.3308,-0.9982l0.9981 0c1.4534,0 1.2082,0.6654 2.6617,0.6654l4.6578 0 0 -0.9982 -4.6578 0c-1.1395,0 -2.6251,-1.3514 -2.6617,-2.9946l1.9963 0c0.7998,0 0.9779,0.5392 1.6635,0.9982l4.9906 0c1.4005,2.647 3.8944,4.665 6.6541,5.9892l0.3327 -0.3327 -0.3327 -0.3328 -0.3327 -0.3327 -2.6081 -2.4138 3.2735 1.7483c-0.1684,-2.0233 -3.7671,-4.2181 -5.8496,-4.4768l2.578 2.5359 -0.3881 0.2773c-0.1129,0.1128 -0.2086,-0.3203 -0.2706,-0.3949 -0.0613,-0.0734 -0.2185,-0.2625 -0.3066,-0.3588 -0.3153,-0.3443 -0.5002,-0.4965 -0.8361,-0.8275 -0.3255,-0.3208 -1.5811,-1.425 -1.5811,-1.7461 0,-1.0229 0.9747,-1.331 1.9962,-1.331l1.6635 0c1.0815,0 0.2512,0.2883 1.6636,0.6655zm1.9963 7.3201l-0.3328 0 -0.3327 0.3327 0.6655 -0.3327zm-42.2538 -40.926c-0.9774,-1.1702 -4.9906,2.1732 -4.9906,3.3274l0 0.9982c0,1.897 3.0911,4.8299 4.3252,5.6564l2.6616 0.9981c-1.4455,-2.1588 -6.3214,-3.9567 -6.3214,-7.6527 0,-0.9779 3.4316,-2.8545 4.3252,-3.3274zm52.235 22.6258l0.3024 -3.3473 0.3629 -0.9783 -0.6478 0.3612 -0.0175 3.9644zm-8.9831 13.642l0.3326 0.3327 0.3328 0.3327 0.3327 0.3328 0.3326 0 0.3882 0.3881 0.2107 -0.3216 -0.5989 -0.732 -3.7152 -3.0501 -0.2516 0.3583 2.6361 2.3591zm-23.3131 -59.5954l-0.3921 2.685 -4.2787 4.3034 0.0185 -3.9853 4.6523 -3.0031zm4.5262 -1.5909c0.2246,-0.6368 0.488,-0.6212 0.488,-1.3672 0,-0.7037 -0.1191,-0.4387 -0.3327,-1.3309 0.3362,-0.2337 1.1384,-0.9982 1.3308,-0.9982 1.2589,0 6.1933,2.2442 9.6485,1.6636l4.9694 -0.7917 0.6866 0.1263c3.0408,0 5.5522,6.3652 7.1899,8.7807 1.4062,2.0738 1.3994,2.6809 3.2052,4.7801 0.4812,0.5595 3.2459,3.9785 3.2459,4.4066 0,0.493 -1.6635,4.8899 -1.6635,7.6529 -0.1279,-0.0341 -7.6706,-5.7575 -9.5291,-6.7741 -2.8513,-1.5594 -8.4489,-3.2079 -12.7623,-3.2079l-4.6579 0c-2.2381,0 -4.3083,0.3085 -6.2547,0.7322 -1.8898,0.4114 -2.4239,1.7382 -4.7246,1.9297l0 -1.331c0,-1.7856 0.9981,-1.5733 0.9981,-2.6618l0 -0.6654c0,-0.8 -0.5391,-0.9782 -0.9981,-1.6637 1.5366,-0.4103 4.0683,-2.3843 7.5246,-3.4549 1.5313,-0.4744 4.7855,-4.0364 4.7855,-5.8616 0,-0.0448 -0.3273,-0.659 -0.3327,-0.6655 -1.5809,1.1584 -1.0619,3.6318 -3.6597,4.3256l0.8428 -3.6238z"/>
    <path id="_321755640" class="fil0" d="M81.5072 72.2111l-0.3327 0.3327c-0.8936,0.4729 -4.3252,2.3495 -4.3252,3.3274 0,3.696 4.8759,5.4939 6.3214,7.6527l-2.6616 -0.9981c-1.1369,1.6979 -7.0074,5.1713 -9.2331,7.4028 -2.414,2.4202 -6.1309,6.0466 -7.3551,9.2809 -0.2698,0.7128 -2.3141,4.1163 -2.9795,5.3386 -1.4254,2.6186 -1.2692,3.1243 -2.2818,6.0363 -0.6739,1.9385 -3.1219,12.4044 -1.7726,14.531 1.4109,-5.2847 14.3271,-7.2561 19.8345,-9.4443 3.3973,-1.3498 7.1377,-2.7589 10.4018,-4.2376 1.0096,-0.4573 3.2142,-2.3827 3.825,-3.4948 0.587,-1.0687 0.6219,-1.5172 0.886,-2.774 0.406,-1.9332 0.905,-1.1295 1.3177,-2.675l-0.4232 -6.3172c-0.1931,-0.4282 -1.2911,-1.8189 -1.2404,-2.3339l0.3726 -4.6542c-2.5654,-3.7758 -6.8862,-3.1979 -8.6903,-5.6605l7.2196 2.6053c0.1,-5.7165 3.0285,-4.6391 3.0943,-7.5962l-1.3283 0.6696 -6.9897 0.3223c0.5464,-2.0389 4.0474,-2.0747 6.0997,-2.8776 1.58,-0.6183 1.3195,-1.1268 3.5392,-1.1189 2.2677,0.0082 2.6224,0.5575 2.6716,-1.6536l-4.6713 -0.5398c0.5068,-0.7992 0.7773,-1.1239 2.0097,-1.1239l2.9943 0c0.1179,0 4.4415,1.1539 6.3039,1.3485 1.5621,0.1633 3.3133,1.6606 5.0521,2.2676 5.7592,2.0102 7.6198,0.4616 13.0771,1.5621 4.4403,0.8955 7.855,1.9668 11.8163,2.823 2.9057,0.6281 7.8344,4.1022 10.3296,4.3098 -0.0572,-2.5662 -4.2002,-3.3932 -5.9867,-4.3275 -2.0236,-1.0581 -4.3709,-2.6501 -6.7234,-3.2581 -3.0988,-0.8008 -5.4763,-0.5486 -8.6874,-1.6265 -2.5549,-0.8576 -5.5918,-1.1066 -8.5396,-1.4417 -2.1648,-0.2461 -5.667,-1.2423 -8.5739,-1.7402 -0.8915,-0.1527 -3.3405,-0.379 -4.2532,-0.7375 -1.8741,-0.7362 -0.8124,-0.8178 -3.6736,-1.3171 -4.0227,-0.7021 -4.8256,-0.8253 -8.6542,-0.0541 -2.4227,0.488 -6.6449,2.0965 -7.7896,2.1917z"/>
    <path id="_321755304" class="fil4" d="M118.105 119.126l0.3327 -0.3327 -0.3327 0.3327 -1.6635 2.3292 -0.3327 0.3327 -0.3327 0.3327 0.3327 -0.3327 0.3327 -0.3327 1.6635 -2.3292zm-1.3308 2.9946l-0.3327 0.3328 -0.3327 0.3326 -0.3327 0.6656 -0.3328 0.3326 -0.3326 0.3328 -0.3328 0.3328 0.3328 -0.3328 0.3326 -0.3328 0.3328 -0.3326 0.3327 -0.6656 0.3327 -0.3326 0.3327 -0.3328 2.329 -1.9964 0 -0.9982 0.3327 -0.3327 0.3326 -0.3328 0.3328 -0.3326 0.3327 -0.3328 0.3327 -0.3328 0.3327 -0.3326 0.3327 -0.3328 0.3327 -0.3328 0.3327 -0.3326 0.3327 -0.3328 0.3327 -0.3328 0.3327 -0.3326 0.9982 0c-0.4655,1.7431 -6.0299,7.885 -7.6523,8.3183 0.0537,0.6454 -0.0157,1.3308 0.6654,1.3308 1.0577,0 7.5987,-6.5779 7.6522,-8.9837l0.9981 0 1.6595 0.3302 0.6695 -1.3284 2.3775 -0.3016 2.2804 -3.3584 0.0756 -3.0702 -1.7391 -1.5881 -0.6654 0 -0.3327 0.3328 -0.3328 -0.3328 -0.9981 0.9982 0.9981 0 -0.3326 0.3328 -0.3328 0.3327 -0.3327 0.6655 -0.3326 0.3327 -0.3328 0.3327 -0.3327 0.3328 -0.3327 0.3327 0.3327 -0.3327 0.3327 -0.3328 0.3328 -0.3327 0.3326 -0.3327 0.3327 -0.6655 0.3328 -0.3327 0.3326 -0.3328 0.3328 -0.6654 0.3327 -0.3328 0.6654 0c-0.2136,0.8923 -0.3328,0.6272 -0.3328,1.331 0,1.322 0.6655,1.6725 0.6655,2.9946 0,1.2159 -0.9182,2.6618 -1.9962,2.6618l-0.9511 -0.0091 -0.3798 -0.9891 0 2.3291 -1.3308 0.9982 -0.9982 0 -1.6634 -0.6654 -0.9982 0 -0.3327 0.3326 -0.3327 0.3328 -0.3327 0.3328 -0.3327 0.3326 -0.3327 0.3328 -0.3327 0.3328 -0.3327 0.3326 -0.3327 0.3328 -0.3327 0.3328 -0.3328 0.3326 -0.3326 0.3328 -0.3327 0.3327 -2.329 2.9946zm10.9793 -12.9765l-0.9581 0.7137 -1.0382 -0.7137 0.5989 0.732 -0.2107 0.3216 -0.3882 -0.3881 0 0.3327 0.3328 0.3327 0.4473 -0.1845 1.2162 -1.1464zm0 -0.3327l0.9981 -0.9982 -0.9981 0.9982z"/>
    <path id="_321755448" class="fil0" d="M122.097 112.472l0.3327 0.3327 0.3327 0.3328 0.3327 0.3327 0.3328 0c0.5908,0.3957 1.9038,1.6637 2.6616,1.6637 0.7788,0 1.3308,-0.5522 1.3308,-1.331l0 -0.3327c0,-1.2578 -0.8117,-2.2194 -1.3308,-2.9946l-0.3328 -0.3327 -0.3326 -0.3327 -0.3327 -0.3328 -0.3328 -0.3327 -0.3326 -0.3327 -2.9944 -2.6619c-1.4124,-0.3772 -0.5821,-0.6655 -1.6636,-0.6655l-1.6635 0c-1.0215,0 -1.9962,0.3081 -1.9962,1.331 0,0.3211 1.2556,1.4253 1.5811,1.7461 0.3359,0.331 0.5208,0.4832 0.8361,0.8275 0.0881,0.0963 0.2453,0.2854 0.3066,0.3588 0.062,0.0746 0.1577,0.5077 0.2706,0.3949l0.3881 -0.2773 -2.578 -2.5359c2.0825,0.2587 5.6812,2.4535 5.8496,4.4768l-3.2735 -1.7483 2.6081 2.4138z"/>
    <path id="_321755616" class="fil3" d="M130.082 106.815l-0.3328 0.6654 -0.3326 0.3328 -0.3328 0.3327 -0.3327 0.6655 -0.3326 0.3327 -0.3328 0.3327 -0.3327 0.3328 -0.3327 0.3327 0.6654 2.3291 0.3798 0.9891 0.9511 0.0091c1.078,0 1.9962,-1.4459 1.9962,-2.6618 0,-1.3221 -0.6655,-1.6726 -0.6655,-2.9946 0,-0.7038 0.1192,-0.4387 0.3328,-1.331l-0.6654 0 -0.3327 0.3328z"/>
    <path id="_321755232" class="fil2" d="M185.312 113.137l-2.9943 0.3327 -1.202 -0.1102 1.202 -2.5516 -0.9982 0c-0.5445,0 -0.9981,0.1991 -0.9981,0.6654 0,0.951 0.2104,3.6601 0.9981,3.6601 1.3967,0 4.658,-0.4017 4.658,-1.6637l0 -2.3291 3.8717 0.1029 -0.8444 1.7384 -0.3657 -0.1777 0 1.6637c0.8428,-0.225 1.6635,-0.6429 1.6635,-1.6637l0 -0.9982c0,-1.0216 -0.308,-1.9963 -1.3308,-1.9963l-2.9943 0c-1.7143,0 -0.6655,1.7229 -0.6655,3.3273z"/>
    <path id="_321755136" class="fil5" d="M27.9918 157.054c6.7299,0.004 14.7016,-2.0133 20.9148,-1.9878 3.3302,0.0137 6.6061,-1 10.65,-0.9948 3.1718,0.0041 7.6481,-1.2645 10.2919,-1.3529 15.2705,-0.5107 29.8802,-0.6747 43.9549,-2.2915 13.7557,-1.5802 29.8039,-1.3343 42.6462,-3.6003 6.3759,-1.125 15.0617,-0.8176 20.9032,-2.0537 3.197,-0.6764 7.2008,-0.4093 10.5371,-1.1076 2.4054,-0.5035 7.7282,-0.9148 10.73,-0.9148l0.9981 0 2.9944 37.9313 0 1.6636c-5.1939,0 -16.4098,1.133 -21.372,1.9176 -6.1396,0.9707 -15.0991,1.6205 -21.2118,2.0778 -7.2387,0.5416 -14.7656,0.5802 -21.4957,1.7939 -6.7977,1.2258 -15.0822,0.5443 -22.0212,1.6011 -3.1827,0.4848 -7.1727,0.6185 -10.7069,0.938 -3.2157,0.2909 -7.0725,1.0256 -10.6544,0.9904 -6.9878,-0.0686 -14.4993,1.719 -21.2999,1.9896 -3.0231,0.1203 -7.6193,0.636 -10.6523,0.9926 -2.9782,0.3502 -7.3355,0.6562 -10.4366,1.2081 -2.9875,0.5319 -7.7132,0.7956 -10.5376,1.1073 -2.9155,0.3217 -8.5967,1.022 -10.9472,1.0214l-3.285 -40.9293zm139.686 -22.6217l0.6861 0.667 0.312 -5.3253c-1.4838,-6.3695 -9.9226,-8.5173 -15.7631,-10.8542 -6.1385,-2.4561 -14.5076,-4.1001 -19.5037,-7.446l0 -3.66c-0.4053,-0.6052 -1.9963,-2.0483 -1.9963,-2.6619 0,-1.4761 0.6483,-5.6538 1.5372,-6.4482 1.6167,-1.445 1.1244,-3.9971 1.0628,-6.9189l1.3925 -1.6058 -0.732 0.5989 -0.3216 -0.2107 1.0536 -1.0536 -1.3309 1.3308 -0.3629 0.9783 -0.3024 3.3473c0,2.686 -0.3136,2.1871 -1.9963,2.9945 0,4.5261 -0.0802,5.3257 -1.6636,8.3183l0.3328 0.3328 0.3327 -0.3328 0.6654 0 1.7391 1.5881 -0.0756 3.0702c0,4.0844 -3.0558,9.8642 -5.9561,10.6675l1.1667 -1.8924 -0.3759 -0.3454 -6.1467 4.5468c0.655,3.0931 -6.0607,1.803 -6.6542,0.3328l0.3328 -0.3328 0.3326 -0.3328 0.3328 -0.3326 0.3327 -0.6656 0.3327 -0.3326 0.3327 -0.3328 2.329 -2.9946 0.3327 -0.3327 0.3326 -0.3328 0.3328 -0.3326 0.3327 -0.3328 0.3327 -0.3328 0.3327 -0.3326 0.3327 -0.3328 0.3327 -0.3328 0.3327 -0.3326 0.3327 -0.3328 0.3327 -0.3328 0.3327 -0.3326 0.9982 0 1.6634 0.6654 0.9982 0 1.3308 -0.9982 0 -2.3291 -0.6654 -2.3291 0.3327 -0.3327 0.3327 -0.3328 0.3328 -0.3327 0.3326 -0.3327 0.3327 -0.6655 0.3328 -0.3327 0.3326 -0.3328 -0.9981 0 0 0.3328 -0.9981 0.9982 0 0.3327 -1.2162 1.1464 -0.4473 0.1845 -0.3328 -0.3327 0 -0.3327 -0.3326 0 -0.3327 -0.3328 -0.3328 -0.3327 -0.3326 -0.3327 -2.6361 -2.3591 0.2516 -0.3583 3.7152 3.0501c-1.3176,-1.9681 -4.1518,-2.5762 -4.3251,-4.6583l-3.6598 0 3.3259 0.3675 0.3339 1.2962 2.9944 2.6619 0.3326 0.3327 0.3328 0.3327 0.3327 0.3328 0.3326 0.3327 0.3328 0.3327c0.5191,0.7752 1.3308,1.7368 1.3308,2.9946l0 0.3327c0,0.7788 -0.552,1.331 -1.3308,1.331 -0.7578,0 -2.0708,-1.268 -2.6616,-1.6637l-0.6655 0.3327 0.3327 -0.3327 -0.3327 -0.3327 -0.3327 -0.3328 -0.3327 -0.3327 0.3327 0.3327 0.3327 0.3328 -0.3327 0.3327 0.3327 0.3327 -4.3252 4.991 -0.3327 0.3327 -1.6635 2.3292 -0.3327 0.3327 -0.3327 0.3327 -1.6635 1.6636c-0.8657,-0.2016 -4.9789,-1.6636 -4.9906,-1.6636l-1.6636 0c-0.5408,-2.0255 -6.8723,-6.9668 -7.6522,-10.3147l-0.6654 -0.6654c0.1953,2.348 3.347,6.4574 4.7334,7.91 1.1216,1.175 1.9276,2.0951 3.045,3.2766 1.1639,1.2306 3.1831,0.3284 4.8505,1.8754l-5.6421 -0.7509c-1.853,-3.5022 -6.5759,-4.5991 -7.9849,-10.6475l-0.6655 0c0.3637,4.3711 6.3406,8.1916 7.9849,10.6475l-3.136 0.1961 -7.1778 -5.1872c0.2347,2.8214 4.6762,4.3319 6.6581,5.5573l7.981 0.7646 9.5457 2.3894 -1.5712 5.9352 -1.3164 -2.2038 -0.3367 0.2011c0.1034,1.2432 0.4247,1.0144 0.4102,2.0037l-0.3911 5.0343 -2.0153 0.6149 -5.9887 -0.3328 -1.3309 0 0 0.6655 1.6635 0c1.8165,0 1.8433,0.6655 3.6598,0.6655l1.3308 0c2.4918,0 2.7272,-0.6541 3.6598,-1.9964 0.1741,2.0925 2.329,3.1982 2.329,4.991 0,1.9111 -1.5227,4.6582 -2.9944,4.6582l-1.9963 0c-2.1299,0 -3.773,-1.9964 -7.3195,-1.9964 -1.2485,0 -1.8353,1.3309 -2.3289,1.3309 -0.7758,0 -1.6635,-0.8878 -1.6635,-1.6636l0 -0.9982c0,-3.1971 1.829,-3.9161 2.9768,-5.6525l-0.9806 -4.6622 0 -0.3327 -2.329 -7.9856 -1.3308 -1.3309c-5.1631,0 -11.5449,-7.7781 -11.9775,-12.9765 0.8972,-1.3399 1.5896,-1.4591 2.3766,-3.2798 0.5596,-1.2943 1.0088,-3.2254 1.7217,-4.45l2.2232 2.7388 0.3327 0.6655 0.3327 0.3327 0.6655 0.9982 0.3326 0.3327 0.3327 0.3328 0.3328 0.6654 0.3326 0.3328 0.6655 0.9982 -0.6655 -0.9982 -0.3326 -0.3328 -0.3328 -0.6654 -0.3327 -0.3328 -0.3326 -0.3327 -0.6655 -0.9982 -0.3327 -0.3327 -0.3327 -0.6655c-0.4841,-1.8131 -1.1336,-2.8514 -2.6616,-3.66 -0.4127,1.5455 -0.9117,0.7418 -1.3177,2.675 -0.2641,1.2568 -0.299,1.7053 -0.886,2.774 -0.6108,1.1121 -2.8154,3.0375 -3.825,3.4948 -3.2641,1.4787 -7.0045,2.8878 -10.4018,4.2376 -5.5074,2.1882 -18.4236,4.1596 -19.8345,9.4443l-0.6655 5.3237c-0.3167,2.2397 1.2491,6.872 1.8132,8.7009l0.183 -0.7154c-0.1977,-2.3773 -1.3307,-3.7153 -1.3307,-5.6564l0 -4.991c0,-5.485 5.9351,-7.0365 10.2711,-8.3609 2.4243,-0.7405 4.9139,-1.1521 7.0365,-2.2795 1.048,-0.5567 5.3647,-2.0676 6.7749,-2.5411 2.1823,-0.7328 4.439,-1.808 6.6376,-2.7145 2.1141,-0.8717 1.6981,2.7983 3.2774,5.187 1.2845,1.9427 2.593,3.4774 4.3483,4.968 1.3634,1.1577 6.1065,3.2341 6.2368,3.4119 -7.1915,0 -20.9605,-0.5516 -20.9605,5.9892l-0.0808 8.3216 0.4093 11.5803 -13.9694 1.0601c-0.89,-0.5959 -3.9305,-4.897 -4.5535,-6.0936 -0.7267,-1.3956 -3.1441,-6.3232 -3.7642,-7.2156 -1.0852,1.7103 3.6366,8.2289 4.7199,9.5872 4.6577,5.8401 0.4411,3.6208 -6.1214,4.6495 -4.6095,0.7227 -9.1079,0.3711 -13.7622,1.2098 -3.476,0.6264 -10.3007,1.5228 -13.7818,1.5228 -3.7039,0 -2.7135,0.2788 -2.339,3.3373 0.2266,1.8508 0.1395,3.6859 0.3662,5.623 0.4187,3.574 0.9129,7.3564 0.9621,11.3489 0.0868,7.0455 1.6761,15.0513 1.6761,22.6131l1.3309 0 34.2687 -3.3273c2.7036,-1.8787 45.96,-3.3894 54.0312,-4.8582 3.1117,-0.5662 10.3648,-0.9991 13.5208,-1.1183 1.5228,-0.0575 4.7224,-0.5744 6.4413,-0.8784 2.0637,-0.365 4.9524,-0.0966 6.9264,-0.3932 4.3617,-0.6552 9.1251,-0.7023 13.3083,-1.3309 4.1259,-0.6199 9.4924,-1.0702 13.9016,-1.0702 0.707,-0.3392 13.3486,-1.6216 14.9605,-1.6749 2.7116,-0.0899 5.237,-0.4885 7.6623,-0.6555 1.5742,-0.1084 6.9881,0.2223 6.9881,-1.3297l0 -1.6636 -2.6616 -36.6004c-0.1598,-0.6859 -0.2917,-2.7368 -0.9959,-2.6397l-35.6019 3.6379c0.1329,-1.5966 4.9692,-7.3938 3.3271,-9.982l-0.3327 1.331 -3.9925 8.651c-5.7776,0 -14.623,1.0001 -20.6042,1.6872 -6.349,0.7294 -14.3333,0.6507 -20.5186,1.7728 -4.4676,0.8106 -15.8914,1.8727 -20.428,1.8635 -1.9274,-0.0038 -8.7359,0.1422 -10.5137,0.4657 -1.6957,0.3086 -3.5925,0.2034 -5.4562,0.1999 -1.7289,-0.0033 -4.3251,0.8107 -4.3251,-0.6655l0 -18.3002c0,-3.1992 2.7464,-4.9779 5.9795,-5.0002 3.4354,-0.0236 5.9244,-0.9889 9.9904,-0.9889l3.6598 0c1.8265,0 3.9925,9.6854 3.9925,12.311 -0.5172,0.7723 -2.6617,2.9068 -2.6617,3.9928l0 1.9964c0,2.0365 0.643,2.9946 2.6617,2.9946 0.7088,0 1.1318,-1.6637 2.3289,-1.6637l0.3327 0c0.9749,0 3.8935,2.3292 5.656,2.3292l1.9962 0c2.446,0 4.658,-2.4 4.658,-4.3256 0,-3.2521 -1.9963,-4.16 -1.9963,-5.9891l0 -3.3273c0,-0.8245 1.9316,-6.3102 2.2677,-7.0487 0.4333,-0.9521 4.3198,-3.0617 5.5393,-3.7767 3.5658,-2.0909 6.8008,-6.3829 7.8302,-10.8022 0.1284,0.0107 8.4246,3.1216 9.4251,3.5507 3.4187,1.466 5.7672,2.2275 9.6737,3.3022 1.7211,0.4734 7.5165,2.835 9.2965,3.6793 1.738,0.8243 5.8735,5.1434 5.8735,7.4354l0 1.3308c0,1.1472 -0.2461,1.2883 -0.3327,2.3292z"/>
    <path id="_321755712" class="fil2" d="M34.9283 116.797l0 1.9964c0,1.3632 4.0213,1.3309 5.3233,1.3309l0 -2.9945 3.3271 0c0.7666,0 0.9981,0.2315 0.9981,0.9982l0 0.9981 -1.3308 0 0 1.331 0.9981 0c0.7666,0 0.9981,-0.2316 0.9981,-0.9983l0 -2.329c0,-0.7461 -0.2633,-0.7305 -0.6654,-1.331 -4.5758,0 -4.9846,-1.4097 -5.3233,2.6618l-3.3271 0 0 -1.6636c0.9393,-0.0781 1.3308,0.0077 1.3308,-0.9982l0 -0.9982c-0.8491,0.2268 -2.3289,0.9658 -2.3289,1.9964z"/>
    <path id="_321755112" class="fil3" d="M186.643 119.126l3.6597 0c-0.0237,-1.0663 0.1084,-1.6637 -0.9981,-1.6637l-2.6616 0 0 1.6637z"/>
    <path id="_321755544" class="fil2" d="M185.977 130.106l0.9981 0c1.147,0 1.2882,0.2461 2.3289,0.3328l0 1.331 -3.327 0 0 -1.6638zm3.327 -12.6438c1.1065,0 0.9744,0.5974 0.9981,1.6637l-3.6597 0 0 -1.6637 2.6616 0zm-7.3195 0.3328l3.9925 0c-0.0238,1.0663 0.1083,1.6636 -0.9982,1.6636l-3.9925 0 0 1.331c0,3.8936 1.3658,2.6619 6.3814,2.882l-6.3814 1.7762c0,4.0459 -1.6584,4.3255 4.3252,4.3255l-0.0053 1.7199 -4.9853 -0.389 0 1.6637 0.0346 -0.3438 8.6158 1.0093c0.7461,0.075 1.3308,-0.6054 1.3308,-1.331l0 -1.9964c0,-2.5492 -8.3851,-0.1394 -8.6503,-3.3273l7.6522 0c0.746,0 0.7304,0.2634 1.3309,0.6655l-0.0074 -1.24 -5.6487 -0.4237c1.383,-1.2022 5.9888,-0.8262 5.9888,-2.6618l0 -0.9982c-0.7462,0.1739 -0.765,0.3328 -1.6636,0.3328l-2.6879 0.1594 -4.695 -0.7722 0.0634 -0.3854c1.1914,-1.6263 8.9831,0.2415 8.9831,-1.9965l0 -1.9964c0,-0.7459 -0.2634,-0.7304 -0.6695,-1.3962l-7.6482 0.398c-0.9381,0.0587 -0.7701,-0.1245 -1.6636,-0.3326 0.0238,1.0662 -0.1083,1.6636 0.9982,1.6636z"/>
    <path id="_321754344" class="fil0" d="M99.8061 111.806c0.7799,3.3479 7.1114,8.2892 7.6522,10.3147l1.6636 0c0.0117,0 4.1249,1.462 4.9906,1.6636l1.6635 -1.6636 0.3327 -0.3327 0.3327 -0.3327 1.6635 -2.3292 0.3327 -0.3327 4.3252 -4.991 -0.3327 -0.3327c-2.7597,-1.3242 -5.2536,-3.3422 -6.6541,-5.9892l-4.9906 0c-0.6856,-0.459 -0.8637,-0.9982 -1.6635,-0.9982l-1.9963 0c0.0366,1.6432 1.5222,2.9946 2.6617,2.9946l4.6578 0 0 0.9982 -4.6578 0c-1.4535,0 -1.2083,-0.6654 -2.6617,-0.6654l-0.9981 0c-0.8898,0 -0.9841,0.4803 -1.3308,0.9982l3.3292 1.9919c-0.0021,1.136 -0.3547,2.8823 0.996,2.6662l2.6604 -0.3404c0.9025,0.6112 1.7892,2.0042 2.9955,2.0042 1.1522,0 3.5621,-1.4084 4.658,-1.6638 -0.5525,2.069 -3.594,3.6601 -6.3215,3.6601l-1.3308 0c-7.706,0 -10.5842,-7.9365 -11.9774,-7.3201z"/>
    <path id="_321754416" class="fil3" d="M99.1407 111.141l0 -0.3327 -0.6655 -0.9982 -0.3326 -0.3328 -0.3328 -0.6654 -0.3327 -0.3328 -0.3326 -0.3327 -0.6655 -0.9982 -0.3327 -0.3327 -0.3327 -0.6655 -2.2232 -2.7388c-0.7129,1.2246 -1.1621,3.1557 -1.7217,4.45 -0.787,1.8207 -1.4794,1.9399 -2.3766,3.2798 0.4326,5.1984 6.8144,12.9765 11.9775,12.9765l1.3308 1.3309 2.329 7.9856 -2.329 -7.9856 0 -0.9981 3.3366 -0.0755 3.6503 0.4081 -7.981 -0.7646c-1.9819,-1.2254 -6.4234,-2.7359 -6.6581,-5.5573l7.1778 5.1872 3.136 -0.1961c-1.6443,-2.4559 -7.6212,-6.2764 -7.9849,-10.6475l0.6655 0c1.409,6.0484 6.1319,7.1453 7.9849,10.6475l5.6421 0.7509c-1.6674,-1.547 -3.6866,-0.6448 -4.8505,-1.8754 -1.1174,-1.1815 -1.9234,-2.1016 -3.045,-3.2766 -1.3864,-1.4526 -4.5381,-5.562 -4.7334,-7.91z"/>
    <path id="_321754200" class="fil5" d="M126.423 124.45c2.3436,-0.5461 8.3176,-1.9424 8.3176,-4.3256l0 -2.6619c-1.3225,0.4789 -1.6827,2.7805 -3.6616,3.991 -1.1011,0.6734 -3.8091,2.2602 -4.656,2.9965z"/>
    <path id="_321754920" class="fil5" d="M89.8249 120.79c0,1.482 1.9546,2.3291 3.8384,2.1308l-3.8384 -3.129 0 0.9982z"/>
    <path id="_321754728" class="fil3" d="M128.086 114.801l-0.6695 1.3284 -1.6595 -0.3302 -0.9981 0c-0.0535,2.4058 -6.5945,8.9837 -7.6522,8.9837 -0.6811,0 -0.6117,-0.6854 -0.6654,-1.3308 1.6224,-0.4333 7.1868,-6.5752 7.6523,-8.3183l-0.9982 0 -0.3327 0.3326 -0.3327 0.3328 -0.3327 0.3328 -0.3327 0.3326 -0.3327 0.3328 -0.3327 0.3328 -0.3327 0.3326 -0.3327 0.3328 -0.3327 0.3328 -0.3328 0.3326 -0.3326 0.3328 -0.3327 0.3327 0 0.9982 -2.329 1.9964 -0.3327 0.3328 -0.3327 0.3326 -0.3327 0.6656 -0.3328 0.3326 -0.3326 0.3328 -0.3328 0.3328c0.5935,1.4702 7.3092,2.7603 6.6542,-0.3328l6.1467 -4.5468 0.3759 0.3454 -1.1667 1.8924c2.9003,-0.8033 5.9561,-6.5831 5.9561,-10.6675l-2.2804 3.3584 -2.3775 0.3016z"/>
    <path id="_321754800" class="fil3" d="M35.5937 124.117l0 0.9982 3.6598 0 0 -1.9964 -2.6616 0c-0.7667,0 -0.9982,0.2315 -0.9982,0.9982z"/>
    <path id="_321754848" class="fil2" d="M35.5937 124.117c0,-0.7667 0.2315,-0.9982 0.9982,-0.9982l2.6616 0 0 1.9964 -3.6598 0 0 -0.9982zm8.3577 -1.9481l-8.3577 -0.0483c-0.402,0.6005 -0.6654,0.5849 -0.6654,1.331l0 1.9963c0,1.7487 7.076,0.9982 9.0231,0.95l0.9581 0.7137c0.228,-0.4059 0.3327,-0.3559 0.3327,-0.9982 0,-0.7667 -0.2315,-0.9982 -0.9981,-0.9982l-4.3252 0 0 -0.9982c0,-0.7667 0.2315,-0.9982 0.9981,-0.9982l3.9925 0 -0.04 -1.7119 -0.9181 0.762z"/>
    <path id="_321754320" class="fil0" d="M91.1557 137.759l-0.6654 0c-0.7758,0 -1.6635,-0.8878 -1.6635,-1.6637l0 -0.9982c0,-0.9442 1.1484,-1.6636 1.9962,-1.6636 1.076,0 1.9962,0.9203 1.9962,1.9964 0,1.1212 -0.5879,2.3291 -1.6635,2.3291zm43.2519 -2.3291l0 -0.6655c0,-0.7759 0.8877,-1.6637 1.6635,-1.6637l0.6654 0c0.7758,0 1.6636,0.8878 1.6636,1.6637l0 0.6655c0,0.7788 -0.5521,1.3309 -1.3309,1.3309l-1.3309 0c-0.7787,0 -1.3307,-0.5521 -1.3307,-1.3309zm25.9511 -0.9982l0 -0.3328c0,-1.4642 1.3206,-4.8791 1.9962,-5.6564 0,2.2879 0.4873,13.9747 -0.3327,13.9747 -0.8898,0 -0.9841,-0.4803 -1.3308,-0.9982 0.1815,-0.7793 0.3326,-0.983 0.3326,-1.9964l0 -1.3309c0,-1.8166 -0.6653,-1.8434 -0.6653,-3.66zm-33.9361 -9.9819c0.8469,-0.7363 3.5549,-2.3231 4.656,-2.9965 1.9789,-1.2105 2.3391,-3.5121 3.6616,-3.991l0 2.6619c0,2.3832 -5.974,3.7795 -8.3176,4.3256zm40.9229 11.9783l0.3327 -1.331 0 -0.6654c0.0866,-1.0409 0.3327,-1.182 0.3327,-2.3292l0 -1.3308c0,-2.292 -4.1355,-6.6111 -5.8735,-7.4354 -1.78,-0.8443 -7.5754,-3.2059 -9.2965,-3.6793 -3.9065,-1.0747 -6.255,-1.8362 -9.6737,-3.3022 -1.0005,-0.4291 -9.2967,-3.54 -9.4251,-3.5507 -1.0294,4.4193 -4.2644,8.7113 -7.8302,10.8022 -1.2195,0.715 -5.106,2.8246 -5.5393,3.7767 -0.3361,0.7385 -2.2677,6.2242 -2.2677,7.0487l0 3.3273c0,1.8291 1.9963,2.737 1.9963,5.9891 0,1.9256 -2.212,4.3256 -4.658,4.3256l-1.9962 0c-1.7625,0 -4.6811,-2.3292 -5.656,-2.3292l-0.3327 0c-1.1971,0 -1.6201,1.6637 -2.3289,1.6637 -2.0187,0 -2.6617,-0.9581 -2.6617,-2.9946l0 -1.9964c0,-1.086 2.1445,-3.2205 2.6617,-3.9928 0,-2.6256 -2.166,-12.311 -3.9925,-12.311l-3.6598 0c-4.066,0 -6.555,0.9653 -9.9904,0.9889 -3.2331,0.0223 -5.9795,1.801 -5.9795,5.0002l0 18.3002c0,1.4762 2.5962,0.6622 4.3251,0.6655 1.8637,0.0035 3.7605,0.1087 5.4562,-0.1999 1.7778,-0.3235 8.5863,-0.4695 10.5137,-0.4657 4.5366,0.0092 15.9604,-1.0529 20.428,-1.8635 6.1853,-1.1221 14.1696,-1.0434 20.5186,-1.7728 5.9812,-0.6871 14.8266,-1.6872 20.6042,-1.6872l3.9925 -8.651z"/>
    <path id="_321754560" class="fil0" d="M135.406 90.1786l-1.3925 1.6058c0.0616,2.9218 0.5539,5.4739 -1.0628,6.9189 -0.8889,0.7944 -1.5372,4.9721 -1.5372,6.4482 0,0.6136 1.591,2.0567 1.9963,2.6619l0 3.66c4.9961,3.3459 13.3652,4.9899 19.5037,7.446 5.8405,2.3369 14.2793,4.4847 15.7631,10.8542l0.613 0.6599 0.3852 -4.3199 0 -2.6618c0,-7.9019 -2.3866,-16.9493 -5.7534,-21.5303 -4.1348,-5.6258 -6.5899,-10.749 -12.5455,-14.7375 -3.3677,1.7821 -10.6004,2.9946 -15.9699,2.9946z"/>
    <path id="_321754224" class="fil2" d="M43.9113 128.775l0.6655 0 -0.0833 2.6142 -9.5652 -2.6142 0 4.6583 1.6636 0c-0.3772,-1.4124 -0.6655,-0.5821 -0.6655,-1.6636l0.0132 -1.3861 9.3026 2.0515 0 -4.3255 -1.3309 0 0 0.6654z"/>
    <path id="_321754392" class="fil3" d="M189.304 130.439c-1.0407,-0.0867 -1.1819,-0.3328 -2.3289,-0.3328l-0.9981 0 0 1.6638 3.327 0 0 -1.331z"/>
    <path id="_321753864" class="fil5" d="M62.9391 139.773l2.3807 -0.4221 -0.7806 -1.259c0,-4.6182 0.4361,-9.7938 -2.4605,-11.6371l0.8604 13.3182z"/>
    <path id="_321753576" class="fil1" d="M91.1557 137.759c1.0756,0 1.6635,-1.2079 1.6635,-2.3291 0,-1.0761 -0.9202,-1.9964 -1.9962,-1.9964 -0.8478,0 -1.9962,0.7194 -1.9962,1.6636l0 0.9982c0,0.7759 0.8877,1.6637 1.6635,1.6637l0.6654 0z"/>
    <path id="_321754104" class="fil1" d="M137.069 136.761c0.7788,0 1.3309,-0.5521 1.3309,-1.3309l0 -0.6655c0,-0.7759 -0.8878,-1.6637 -1.6636,-1.6637l-0.6654 0c-0.7758,0 -1.6635,0.8878 -1.6635,1.6637l0 0.6655c0,0.7788 0.552,1.3309 1.3307,1.3309l1.3309 0z"/>
    <path id="_321754080" class="fil2" d="M179.166 137.399l1.4719 0.0302 -0.3168 -1.9995 1.6636 0c2.2141,0 2.6461,0.9982 6.0287,0.9499l1.0471 0.7307 0.2437 -1.6806c-2.1043,0 -8.131,-1.0423 -8.6503,-2.3292l-0.7453 -0.0137 -0.7426 4.3122z"/>
    <path id="_321753720" class="fil2" d="M45.5749 135.763l0 1.6636c-1.9955,0 -4.9626,-1.0835 -7.1246,-1.5267 -4.8546,-0.9952 -2.1912,0.5245 -2.1912,4.1886l0.9981 0c-0.402,-0.6005 -0.6653,-0.585 -0.6653,-1.3309l0.0044 -1.6873 9.735 1.678 -0.4237 -4.3162 -0.9981 0c0.4021,0.6004 0.6654,0.5849 0.6654,1.3309z"/>
    <path id="_321753480" class="fil3" d="M102.8 125.448l2.329 7.9856 0 0.3327 1.3308 4.3255 2.9943 0c1.8645,0 2.0427,0.6655 4.658,0.6655l2.0153 -0.6149 0.3911 -5.0343c0.0145,-0.9893 -0.3068,-0.7605 -0.4102,-2.0037l0.3367 -0.2011 1.3164 2.2038 1.5712 -5.9352 -9.5457 -2.3894 -3.6503 -0.4081 -3.3366 0.0755 0 0.9981z"/>
    <path id="_321753816" class="fil3" d="M37.9226 146.078c0,-0.7771 2.2928,-1.331 3.3271,-1.331l0.6654 0c1.6409,0 0.7737,2.3292 1.9962,2.3292 1.5411,0 3.3204,-0.3925 3.6599,-1.6637 1.3371,0.3571 1.3307,0.975 1.3307,2.6619 -0.7461,-0.1739 -0.7649,-0.3328 -1.6635,-0.3328 -1.5987,0 -7.1548,1.4295 -7.6522,2.6618l-0.6655 0c-0.399,-1.4946 -0.9981,-2.0404 -0.9981,-4.3254zm-0.6654 -1.6637l-0.3327 -2.9946c0.2679,0.1862 0.8215,0.6655 0.9981,0.6655 2.0724,0 5.4591,-1.3309 8.3177,-1.3309l0 -0.9982 0.7062 -0.0066 0.2919 2.3357c-0.3901,-0.1035 -0.9069,-0.3327 -0.9981,-0.3327 -3.1306,0 -6.6133,1.804 -8.9831,2.6618zm142.651 -11.3266l0.7453 0.0137c0.5193,1.2869 6.546,2.3292 8.6503,2.3292l-0.2437 1.6806 -1.0471 -0.7307c-3.3826,0.0483 -3.8146,-0.9499 -6.0287,-0.9499l-1.6636 0 0.3168 1.9995 -1.4719 -0.0302 0.7426 -4.3122zm-134.334 2.6756c0,-0.746 -0.2633,-0.7305 -0.6654,-1.3309l0.9981 0 0.4237 4.3162 -9.735 -1.678 -0.0044 1.6873c0,0.7459 0.2633,0.7304 0.6653,1.3309l-0.9981 0c0,-3.6641 -2.6634,-5.1838 2.1912,-4.1886 2.162,0.4432 5.1291,1.5267 7.1246,1.5267l0 -1.6636zm-1.6636 -6.9874l0 -0.6654 1.3309 0 0 4.3255 -9.3026 -2.0515 -0.0132 1.3861c0,1.0815 0.2883,0.2512 0.6655,1.6636l-1.6636 0 0 -4.6583 9.5652 2.6142 0.0833 -2.6142 -0.6655 0zm0.9582 -7.3683l0.04 1.7119 -3.9925 0c-0.7666,0 -0.9981,0.2315 -0.9981,0.9982l0 0.9982 4.3252 0c0.7666,0 0.9981,0.2315 0.9981,0.9982 0,0.6423 -0.1047,0.5923 -0.3327,0.9982l-0.9581 -0.7137c-1.9471,0.0482 -9.0231,0.7987 -9.0231,-0.95l0 -1.9963c0,-0.7461 0.2634,-0.7305 0.6654,-1.331l8.3577 0.0483 0.9181 -0.762zm140.109 -1.9482c1.1065,0 0.9744,-0.5973 0.9982,-1.6636l-3.9925 0c-1.1065,0 -0.9744,-0.5974 -0.9982,-1.6636 0.8935,0.2081 0.7255,0.3913 1.6636,0.3326l7.6482 -0.398c0.4061,0.6658 0.6695,0.6503 0.6695,1.3962l0 1.9964c0,2.238 -7.7917,0.3702 -8.9831,1.9965l-0.0634 0.3854 4.695 0.7722 2.6879 -0.1594c0.8986,0 0.9174,-0.1589 1.6636,-0.3328l0 0.9982c0,1.8356 -4.6058,1.4596 -5.9888,2.6618l5.6487 0.4237 0.0074 1.24c-0.6005,-0.4021 -0.5849,-0.6655 -1.3309,-0.6655l-7.6522 0c0.2652,3.1879 8.6503,0.7781 8.6503,3.3273l0 1.9964c0,0.7256 -0.5847,1.406 -1.3308,1.331l-8.6158 -1.0093 -0.0346 0.3438 0 -1.6637 4.9853 0.389 0.0053 -1.7199c-5.9836,0 -4.3252,-0.2796 -4.3252,-4.3255l6.3814 -1.7762c-5.0156,-0.2201 -6.3814,1.0116 -6.3814,-2.882l0 -1.331 3.9925 0zm-150.051 -2.6618c0,-1.0306 1.4798,-1.7696 2.3289,-1.9964l0 0.9982c0,1.0059 -0.3915,0.9201 -1.3308,0.9982l0 1.6636 3.3271 0c0.3387,-4.0715 0.7475,-2.6618 5.3233,-2.6618 0.4021,0.6005 0.6654,0.5849 0.6654,1.331l0 2.329c0,0.7667 -0.2315,0.9983 -0.9981,0.9983l-0.9981 0 0 -1.331 1.3308 0 0 -0.9981c0,-0.7667 -0.2315,-0.9982 -0.9981,-0.9982l-3.3271 0 0 2.9945c-1.302,0 -5.3233,0.0323 -5.3233,-1.3309l0 -1.9964zm150.383 -3.66c0,-1.6044 -1.0488,-3.3273 0.6655,-3.3273l2.9943 0c1.0228,0 1.3308,0.9747 1.3308,1.9963l0 0.9982c0,1.0208 -0.8207,1.4387 -1.6635,1.6637l0 -1.6637 0.3657 0.1777 0.8444 -1.7384 -3.8717 -0.1029 0 2.3291c0,1.262 -3.2613,1.6637 -4.658,1.6637 -0.7877,0 -0.9981,-2.7091 -0.9981,-3.6601 0,-0.4663 0.4536,-0.6654 0.9981,-0.6654l0.9982 0 -1.202 2.5516 1.202 0.1102 2.9943 -0.3327zm-4.3252 -7.6529c1.5808,0 6.5775,-1.198 6.9869,-2.3291 0.7298,0.5347 3.0766,4.7626 0.3327,4.991 0.2199,-0.944 0.3327,-0.5688 0.3327,-1.3309 0,-0.8622 -0.2227,-0.3419 -0.3327,-1.6637l-3.3587 0.8951 0.0316 0.7686 0.6655 0 0 0.6654 -1.6466 0.4006 0.3836 -1.7145 -4.0419 0.7355 0.9179 2.9318 -1.2691 -0.0242 -1.0657 -4.6417c0.8138,0.1572 0.8326,0.3161 1.7312,0.3161l0.3326 0zm-141.389 -8.6473l1.3197 -0.0037 0 0.6655c-0.7414,0.1979 -0.9981,0.0777 -0.9981,0.9982l0 1.331 2.9327 1.1471 0.0616 -1.8127 2.0154 0.6149 -0.9437 0.8326 -0.0736 0.8817c0.6775,0.1578 3.5108,1.3309 3.6599,1.3309 0.8568,0 0.9981,-1.6356 0.9981,-2.6619l0.6654 0c-0.112,1.3456 -0.7645,4.3293 -1.9963,4.6583 -0.3537,-1.3248 -7.6828,-3.6303 -9.1622,-3.3867l1.5211 -4.5952zm146.848 2.5981l-0.8479 -1.9156 1.0448 -0.0207 1.4577 4.6143 -1.4577 0.0439 0.4005 -1.6466 -7.6546 2.5011 -0.4602 0.7854 -0.6034 0.0238 -0.4126 -1.9804 8.5334 -2.4052zm-13.1114 -8.591c0.5896,-0.8805 5.8148,-4.3255 6.9868,-4.3255 0.9183,0 1.9963,1.6497 1.9963,2.3292l0 0.6655c0,1.1147 -6.1015,4.4217 -6.9869,4.6582 0.0537,0.6455 -0.0156,1.3309 0.6654,1.3309 1.1988,0 7.0624,-3.0293 7.3196,-3.9927l0.6654 0 1.879 4.2254c-1.1248,0.5812 -4.3377,1.8704 -4.7935,2.1763 -0.5093,0.3416 -3.859,2.525 -4.0724,2.582l-0.7119 -2.3138c1.7151,-0.0154 4.3718,-0.459 4.3718,-2.0117 0,-0.2961 -0.3694,-0.6655 -0.6655,-0.6655 -1.1143,0 -1.2708,0.9524 -3.327,0.9982l-0.3948 0.9744 -2.5294 -3.8145 4.2135 -2.2264 -0.6121 -1.5935 -4.5223 2.28 -0.5209 -1.5962 1.0389 0.3197zm-128.757 -3.3272c0.2252,-0.9666 1.6505,-3.9929 2.6616,-3.9929 0.7751,0 3.6598,1.5228 3.6598,2.6619l0 0.3327c0,0.7781 -0.6856,0.9878 -0.9981,2.3292l3.8507 2.2358c0.0743,0.572 -1.2035,3.4206 -1.8545,3.4206 -0.8732,0 -0.8616,-0.5433 -2.3289,-0.6655l2.1782 2.4975c-0.8152,0.4784 -0.2714,0.6506 -1.1801,0.4971l-2.6521 -0.3895 2.248 1.5211 -0.561 1.7079 -0.3657 -0.1776c-0.1935,-1.7692 -7.0898,-4.6561 -8.6504,-4.3255l0.8006 -1.7817 6.4841 1.3223c-1.1285,-1.9435 -4.5711,-3.5318 -4.623,-5.8625l0.6653 0c0.3078,1.1527 7.1225,4.3255 7.6523,4.3255 0.4663,0 0.6654,-0.4536 0.6654,-0.9982 0,-0.9925 -6.2051,-4.626 -7.6522,-4.6582zm4.9906 -6.6547c0.5369,0.8019 1.735,2.3292 2.9944,2.3292 0.4049,0 0.9981,-0.6883 0.9981,-1.331 0,-0.4075 -2.12,-1.9964 -2.6617,-1.9964 -0.8898,0 -0.9841,0.4804 -1.3308,0.9982zm-0.9981 0.6655c0,-1.0345 1.6824,-2.9946 2.6616,-2.9946 0.7729,0 5.7236,5.1632 7.6523,5.3237l-0.8695 1.4304 -3.7256 -3.1668 -1.4676 1.3297c0.8226,1.192 3.7337,2.9668 3.7337,3.4013 0,0.7037 -0.1191,0.4386 -0.3327,1.3309l-0.6654 0c-0.6178,-2.3139 -6.9868,-5.0338 -6.9868,-6.6546zm118.111 1.9963c3.1403,-0.0699 5.5251,-4.9909 7.985,-4.9909 0.2925,0 2.3288,1.9121 2.3288,2.6619 0,1.7786 -5.7261,4.4253 -6.3213,6.6546 -0.7538,-0.2013 -1.3309,-0.32 -1.3309,-1.331 0,-0.0203 2.6684,-2.5076 2.9944,-2.9946l-0.9268 -1.0694 -3.3277 3.1376 -1.4015 -2.0682zm-3.4511 -3.5834l8.034 -3.8913 -1.9213 -1.509c0.0753,-2.7279 3.3445,1.5255 3.6598,1.9964l-8.2945 4.0437 1.7465 1.8838 0.2266 -0.271 0 0.6654 -0.2673 0.3019 -3.1858 -2.8215 0.002 -0.3984zm-4.5338 -4.0693c1.8019,-0.15 5.8323,-4.7754 5.9887,-6.6547 0.9328,0.2491 5.2802,2.9608 2.6616,3.6601l-1.15 -2.124 -2.5874 2.3791 1.3972 1.0949 -0.9156 1.0504 -0.7407 -1.3997c-0.8381,0.5614 -2.6576,2.0259 -2.6576,3.3248 0,0.4049 0.6882,0.9982 1.3308,0.9982l0.9981 0c-0.198,0.7415 -0.0778,0.9982 -0.9981,0.9982 -0.6197,0 -3.0628,-2.3374 -3.327,-3.3273zm-9.3158 -6.3219c1.8863,-0.5037 4.6054,-5.2998 4.6578,-7.6529 1.3046,0.1086 3.9925,1.596 3.9925,2.6619l0 0.6654c0,0.7804 -1.409,2.4163 -2.3289,2.6619l0 0.9982c0,1.3575 -1.6128,1.3814 -1.6636,3.66l-2.1975 -0.9916 0.2013 -0.3393c1.6732,-0.4468 1.9129,-1.9122 2.6617,-3.3273 -0.3469,-0.5179 -0.4411,-0.9981 -1.3309,-0.9981 -0.5551,0 -1.9269,3.1591 -1.9962,3.9927l-1.9677 -0.7344 -0.0285 -0.5965zm6.3214 -2.3292c0.3123,-1.3409 0.9981,-1.6625 0.9981,-2.9945 0,-0.4663 -0.4536,-0.6655 -0.9981,-0.6655 -0.3943,0 -1.7184,2.2469 -1.9963,2.6618l1.9963 0.9982zm-99.5939 5.1756c0.2474,1.7444 5.5362,6.3398 7.1014,6.47 -0.0787,-3.5373 -5.6559,-5.3379 -5.6559,-7.9855 0,-0.2926 1.9118,-2.3291 2.6616,-2.3291l0.3327 0c2.0903,0 4.9238,6.1225 7.3196,6.3219l0.183 -0.7154c-0.9662,-1.6166 -3.7345,-6.7623 -5.8391,-6.9375 0.2835,-1.0615 2.5892,-2.9945 3.9925,-2.9945 0.8839,0 5.6561,6.6203 5.6561,7.3201l0 0.3327c0,0.9161 -4.1618,4.1032 -4.9906,4.6582l-3.5881 -3.4 -1.1412 0.9996 3.1124 3.6915c-0.4943,0.7084 -2.0867,2.7017 -3.0411,2.7017 -1.0747,0 -4.303,-2.4939 -6.3214,-2.6618 1.0816,1.6153 5.215,4.1842 3.6598,5.3237 -0.4163,-1.559 -5.4209,-6.2797 -7.3196,-6.3219 0.2013,-0.7538 0.3199,-1.331 1.3309,-1.331 1.4713,0 2.6038,1.1877 4.3252,1.331l-3.0662 -3.2567 1.288 -1.217zm1.7782 4.4737c-0.5916,0.5915 0.5915,-0.5915 0,0zm98.1483 -2.3292c0.6709,-2.8795 3.9098,-6.8151 3.3271,-9.3165 0.9924,0.0827 1.6635,0.2393 1.6635,1.331 0,0.8251 -2.0537,3.8098 -2.3288,4.991 1.5229,-0.4067 3.6169,-2.4034 3.6597,-4.3256l1.7652 1.211c-2.8597,0.3495 -5.7275,5.9128 -8.0867,6.1091zm-79.5237 -5.3419c-1.4697,-0.9707 -2.3134,-3.6418 -3.6528,-3.6418 -0.1767,0 -0.7303,0.4793 -0.9981,0.6654 0.304,0.4542 2.6616,4.1185 2.6616,4.3256 0,0.6909 -1.2339,0.9347 -1.9963,0.9982 0.6559,-2.8154 -3.9924,-5.8082 -3.9924,-7.9856l0 -0.6655c0,-1.0594 1.6953,-2.3291 2.9943,-2.3291 1.142,0 3.8456,7.0806 5.9887,7.6528l0 0.6655 -1.005 0.3145zm67.8791 -1.9782c1.6737,-0.8857 4.3251,-5.5843 4.3251,-8.3183l4.5638 2.1721 -0.7753 1.2549c-0.2746,-1.4335 -1.07,-1.6478 -2.4577,-1.7633 -0.4165,1.5602 -2.9787,3.7661 0.3328,2.9946l-0.7335 2.1209 -0.6594 -1.0989 -0.2987 -0.2891 -2.2467 3.055 0.1425 0.4962 2.2948 1.0713 0.2322 -0.3406 -0.3766 0.9813 -4.3433 -2.3361zm-70.5338 -7.9855c0,-0.6986 2.008,-1.6636 2.9943,-1.6636 1.2531,0 0.6291,0.2189 1.9963,0.3326l0 0.6656 -1.3953 0.5209c-0.5361,-0.2576 -0.5204,-0.5209 -1.2664,-0.5209 -1.4706,0 0.1588,2.9134 0.3327,3.66 1.7749,-0.1477 1.9158,-1.331 2.9944,-1.331 0.5842,0 2.6616,4.1017 2.6616,4.6583 0,1.1712 -2.5165,2.3291 -3.6598,2.3291 -0.5409,0 -0.7755,-0.9103 -0.9981,-1.3309l0.9268 -1.0695c0.6718,0.4734 0.6562,0.7367 1.4022,0.7367 0.4662,0 0.6654,-0.4536 0.6654,-0.9982 0,-0.3169 -1.4888,-2.322 -1.9963,-2.6618l-2.3387 1.3143c-0.8695,-0.5722 -2.3191,-3.2467 -2.3191,-4.6416zm66.2085 5.6565c0,-0.7248 3.0882,-7.9856 4.3253,-7.9856 1.667,0 3.809,1.5726 3.1815,2.9103 -0.9585,2.0433 -1.4748,-1.7701 -3.1815,-1.9122l-3.2699 7.527 1.2806 0.4404 1.5862 -0.7963c-0.0078,1.0884 0.078,1.48 -0.9278,1.48 -0.9118,0 -2.9944,-0.6387 -2.9944,-1.6636zm-110.459 91.1683c3.4811,0 10.3058,-0.8964 13.7818,-1.5228 4.6543,-0.8387 9.1527,-0.4871 13.7622,-1.2098 6.5625,-1.0287 10.7791,1.1906 6.1214,-4.6495 -1.0833,-1.3583 -5.8051,-7.8769 -4.7199,-9.5872l-0.3328 -0.6655 -0.183 0.7154c-0.5641,-1.8289 -2.1299,-6.4612 -1.8132,-8.7009l0.6655 -5.3237c-1.3493,-2.1266 1.0987,-12.5925 1.7726,-14.531 1.0126,-2.912 0.8564,-3.4177 2.2818,-6.0363 0.6654,-1.2223 2.7097,-4.6258 2.9795,-5.3386 1.2242,-3.2343 4.9411,-6.8607 7.3551,-9.2809 2.2257,-2.2315 8.0962,-5.7049 9.2331,-7.4028 -1.2341,-0.8265 -4.3252,-3.7594 -4.3252,-5.6564l0 -0.9982c0,-1.1542 4.0132,-4.4976 4.9906,-3.3274l0.3327 -0.3327 8.3368 -3.2708c4.1338,-0.0565 4.3901,-2.7213 4.9479,-6.4019 0.5143,-3.3932 1.0217,-6.4133 1.0217,-10.2911 0.5294,-0.7906 4.6685,-3.9043 5.721,-4.5933 1.2023,-0.787 4.775,-4.7232 5.591,-4.7232 1.3698,0 2.1058,0.5007 2.6617,1.3309l5.3043 0.7823 1.0171 -0.1168c2.2108,0 4.2517,-0.9982 4.6579,-0.9982l2.3289 0c2.5349,0 6.0458,7.2104 7.1652,9.4708 1.0923,2.2058 6.8085,8.7345 6.8085,9.4948 0,0.7238 -1.2188,2.7376 -1.3288,4.3275 -0.1295,1.8709 -0.3347,2.9619 -0.3347,4.989 0,5.4711 3.5396,5.7087 7.4378,7.8672 2.5934,1.4361 6.1621,4.6303 8.8648,6.4402l-0.3327 0.6655c5.9556,3.9885 8.4107,9.1117 12.5455,14.7375 3.3668,4.581 5.7534,13.6284 5.7534,21.5303l0 2.6618 -0.3852 4.3199 -0.613 -0.6599 -0.312 5.3253 -0.6861 -0.667 0 0.6654 -0.3327 1.331 0.3327 -1.331c1.6421,2.5882 -3.1942,8.3854 -3.3271,9.982l35.6019 -3.6379c0.7042,-0.0971 0.8361,1.9538 0.9959,2.6397 1.595,-1.8353 2.6616,-14.8227 2.6616,-18.9657 0,-14.9198 -2.7224,-26.156 -7.7635,-36.1565 -5.9938,-11.8902 -9.9705,-16.0072 -18.7703,-24.8161 -5.3571,-5.3624 -18.6062,-14.8137 -26.6316,-17.2868 -2.1544,-0.6639 -5.4213,-1.9958 -8.0168,-2.9629 -1.6562,-0.6172 -6.7899,-2.0121 -8.683,-2.2964 -6.1012,-0.9162 -12.261,-2.326 -19.3002,-2.326 -7.6264,0 -13.4451,0.8771 -19.9296,1.6965 -3.7171,0.4697 -13.5973,3.5519 -16.6689,4.9573 -4.8179,2.2043 -10.3911,4.0693 -14.5032,7.1233 -1.3861,1.0295 -1.9776,1.1224 -3.4026,2.2535 -1.0919,0.8667 -1.8243,1.6797 -2.9155,2.408 -2.4287,1.6207 -3.7582,2.9762 -5.8801,4.7669 -3.4914,2.9465 -7.8997,7.341 -10.6521,10.9747 -1.6563,2.1867 -3.0322,4.0705 -4.6986,6.2811 -1.922,2.5499 -2.4654,3.7895 -4.0844,6.5627 -4.0806,6.9895 -9.0919,23.1146 -9.0919,34.1625l0 5.9891c0,10.3458 3.4046,22.8428 6.9868,29.6131z"/>
    <path id="_321753984" class="fil5" d="M160.359 134.432c0,1.8166 0.6653,1.8434 0.6653,3.66l0 1.3309c0,1.0134 -0.1511,1.2171 -0.3326,1.9964 0.3467,0.5179 0.441,0.9982 1.3308,0.9982 0.82,0 0.3327,-11.6868 0.3327,-13.9747 -0.6756,0.7773 -1.9962,4.1922 -1.9962,5.6564l0 0.3328z"/>
    <path id="_321753744" class="fil2" d="M37.2572 144.414c2.3698,-0.8578 5.8525,-2.6618 8.9831,-2.6618 0.0912,0 0.608,0.2292 0.9981,0.3327l-0.2919 -2.3357 -0.7062 0.0066 0 0.9982c-2.8586,0 -6.2453,1.3309 -8.3177,1.3309 -0.1766,0 -0.7302,-0.4793 -0.9981,-0.6655l0.3327 2.9946z"/>
    <path id="_321754176" class="fil3" d="M114.113 138.757c-2.6153,0 -2.7935,-0.6655 -4.658,-0.6655l-2.9943 0 -1.3308 -4.3255 0.9806 4.6622c-1.1478,1.7364 -2.9768,2.4554 -2.9768,5.6525l0 0.9982c0,0.7758 0.8877,1.6636 1.6635,1.6636 0.4936,0 1.0804,-1.3309 2.3289,-1.3309 3.5465,0 5.1896,1.9964 7.3195,1.9964l1.9963 0c1.4717,0 2.9944,-2.7471 2.9944,-4.6582 0,-1.7928 -2.1549,-2.8985 -2.329,-4.991 -0.9326,1.3423 -1.168,1.9964 -3.6598,1.9964l-1.3308 0c-1.8165,0 -1.8433,-0.6655 -3.6598,-0.6655l-1.6635 0 0 -0.6655 1.3309 0 5.9887 0.3328z"/>
    <path id="_321753048" class="fil3" d="M38.9207 147.408c0,0.7666 0.2315,0.9981 0.9982,0.9981 1.4427,0 1.027,-0.5293 2.6617,-0.6654 -0.0238,-1.0663 0.1083,-1.6636 -0.9981,-1.6636 -1.1853,0 -2.6618,0.1625 -2.6618,1.3309z"/>
    <path id="_321752736" class="fil2" d="M38.9207 147.408c0,-1.1684 1.4765,-1.3309 2.6618,-1.3309 1.1064,0 0.9743,0.5973 0.9981,1.6636 -1.6347,0.1361 -1.219,0.6654 -2.6617,0.6654 -0.7667,0 -0.9982,-0.2315 -0.9982,-0.9981zm9.9812 0.6655c0,-1.6869 0.0064,-2.3048 -1.3307,-2.6619 -0.3395,1.2712 -2.1188,1.6637 -3.6599,1.6637 -1.2225,0 -0.3553,-2.3292 -1.9962,-2.3292l-0.6654 0c-1.0343,0 -3.3271,0.5539 -3.3271,1.331 0,2.285 0.5991,2.8308 0.9981,4.3254l0.6655 0c0.4974,-1.2323 6.0535,-2.6618 7.6522,-2.6618 0.8986,0 0.9174,0.1589 1.6635,0.3328z"/>
    <path id="_321752832" class="fil0" d="M62.0787 126.455c2.8966,1.8433 2.4605,7.0189 2.4605,11.6371l0.7806 1.259 -2.3807 0.4221 -0.8604 -13.3182zm31.5846 -3.5341c-1.8838,0.1983 -3.8384,-0.6488 -3.8384,-2.1308l0 -0.9982 3.8384 3.129zm-35.4456 15.5039l0.3328 0.6655c0.6201,0.8924 3.0375,5.82 3.7642,7.2156 0.623,1.1966 3.6635,5.4977 4.5535,6.0936l13.9694 -1.0601 -0.4093 -11.5803 0.0808 -8.3216c0,-6.5408 13.769,-5.9892 20.9605,-5.9892 -0.1303,-0.1778 -4.8734,-2.2542 -6.2368,-3.4119 -1.7553,-1.4906 -3.0638,-3.0253 -4.3483,-4.968 -1.5793,-2.3887 -1.1633,-6.0587 -3.2774,-5.187 -2.1986,0.9065 -4.4553,1.9817 -6.6376,2.7145 -1.4102,0.4735 -5.7269,1.9844 -6.7749,2.5411 -2.1226,1.1274 -4.6122,1.539 -7.0365,2.2795 -4.336,1.3244 -10.2711,2.8759 -10.2711,8.3609l0 4.991c0,1.9411 1.133,3.2791 1.3307,5.6564z"/>
    <path id="_321752808" class="fil1" d="M93.8174 163.38c0,0.8479 0.7193,1.9964 1.6635,1.9964 1.1212,0 2.3289,-0.588 2.3289,-1.6637l0 -0.6655c0,-1.0756 -1.2077,-1.6636 -2.3289,-1.6636 -0.9442,0 -1.6635,1.1485 -1.6635,1.9964z"/>
    <path id="_321753288" class="fil0" d="M176.661 163.047l0 2.6619 2.6616 0 0 -0.9981c0,-1.1855 -0.1625,-2.662 -1.3309,-2.662l-0.3326 0c-0.7666,0 -0.9981,0.2316 -0.9981,0.9982z"/>
    <path id="_321753240" class="fil1" d="M76.1839 164.045l0 0.9982c0,0.8012 1.1951,1.9964 1.9962,1.9964 0.8012,0 1.9962,-1.1952 1.9962,-1.9964l0 -0.6654c0,-0.7759 -0.8877,-1.6637 -1.6635,-1.6637l-0.9981 0c-0.7787,0 -1.3308,0.5521 -1.3308,1.3309z"/>
    <path id="_321753192" class="fil0" d="M150.71 165.709l0.6654 7.3201c0.6005,0.4021 0.5848,0.6655 1.3308,0.6655l0.9981 0c0.8734,0 1.4059,-0.9888 1.4626,-1.6783l-0.7972 -7.3054c-0.6004,-0.4022 -0.5848,-0.6656 -1.3308,-0.6656l-0.6654 0c-0.7315,0 -1.7499,0.9378 -1.6635,1.6637z"/>
    <path id="_321753096" class="fil1" d="M163.686 163.38l0.016 -0.9106 -5.0066 1.2433c2.67,0.0595 1.397,1.0993 1.687,3.6364 0.2032,1.7765 0.3092,3.0878 0.3092,5.3474l-1.3309 0 0 0.9982 1.3525 0.1546 5.3581 -0.7495 -0.0565 -0.4033 -1.6635 0 0 -1.6637c0,-2.8329 -1.3372,-7.6528 1.9963,-7.6528 1.3556,0 1.3308,7.3792 1.3308,8.9837l-0.9981 0 0.0046 0.7272 6.3168 -0.3944 0 -0.6655c-4.2029,-0.0936 1.3462,-9.982 -5.3233,-9.982l-0.3327 0c-1.4914,0 -2.4142,0.9984 -3.6597,1.331z"/>
    <path id="_321753384" class="fil0" d="M147.05 168.703c0,-2.6418 2.9186,-5.3237 5.656,-5.3237 2.7692,0 5.9888,2.4967 5.9888,4.991l0 1.3309c0,1.7593 -2.4314,4.6582 -4.3253,4.6582l-2.3289 0c-3.0555,0 -4.9906,-2.5868 -4.9906,-5.6564zm-70.8665 0.3327l3.8462 0.0181 1.1444 9.6311 1.3308 0 0.0101 0.779 -11.6548 0.8846 0 -0.6654c-1.5492,0.4137 -1.0843,1.331 -2.9943,1.331l-1.6636 0c-3.3068,0 -3.327,-6.4131 -3.327,-9.6493l-1.6636 0c0.362,-1.3558 3.8246,-1.2975 5.3233,-1.3309l0 0.9982c0,2.4049 -0.1211,8.651 1.9963,8.651 0.7271,0 2.0247,-1.3758 2.1262,-1.6765l-0.7954 -7.3072 -1.3308 0 0.0117 -0.5863 4.9771 -0.7445 0.9999 9.6491 2.6616 0 0.0787 -2.6678 -0.4114 -6.316 -1.6636 0c0.1981,-0.7415 0.0778,-0.9982 0.9982,-0.9982zm16.3026 1.3309l-0.9981 0 0 1.9964c0,4.0117 -7.0448,1.0241 -7.3195,4.3255l1.6635 0c3.2402,0 7.3196,-1.2113 7.3196,2.6619 0,2.7307 -1.8206,5.6564 -4.3252,5.6564l-2.6617 0c-0.8301,0 -3.327,-1.536 -3.327,-2.6619 0,-1.5117 0.7105,-1.7355 1.3308,-2.6618 -0.4484,-0.6695 -1.3308,-1.343 -1.3308,-2.3291 0,-1.4139 0.5374,-2.0284 1.6635,-2.3291 -0.4301,-1.6108 -1.3309,-1.1123 -1.3309,-2.3291l0 -1.9964c0,-0.9597 2.1867,-2.6619 2.9944,-2.6619l1.6635 0c1.0134,0 1.2169,0.1512 1.9963,0.3328 2.676,-1.7921 1.5291,-0.6655 4.6578,-0.6655 1.5787,0 2.4032,-0.3727 3.5706,-0.6593l0.7547 10.3085 1.3308 0 -0.006 0.6256 -2.9883 0.3726 -3.3271 0 0 -0.6655 0.9981 0 0.0781 -3.3338 -0.4109 -5.6499 -0.6653 0c-0.0826,0.9924 -0.2393,1.6636 -1.3309,1.6636zm84.5131 -3.5898l-0.0057 0.928c0,1.2356 0.7408,3.66 1.6636,3.66 3.8992,0 2.6956,-2.2222 4.6579,-3.66 0,3.1164 -1.6533,4.6582 -4.6579,4.6582l-0.9981 0c-2.4218,0 -4.6579,-3.0501 -4.6579,-5.6564l0 -0.9982c0,-2.2361 2.4718,-4.3255 4.6579,-4.3255l1.6635 0c2.3796,0 3.6068,2.6114 3.6542,4.9207l-5.9775 0.4732zm-51.5751 1.5935l0 0.3327c0,0.7666 -0.2315,0.9982 -0.9981,0.9982l-0.9981 0c-0.7666,0 -0.9982,-0.2316 -0.9982,-0.9982l0 -0.3327c0,-1.7087 1.7732,-2.9946 3.327,-2.9946l1.6636 0c2.2254,0 3.4315,0.9943 4.2308,2.3376l0.852 6.7526 1.5713 -1.1047c-0.1229,1.4767 -1.1913,2.9946 -2.6616,2.9946 -1.2214,0 -1.6083,-0.5155 -2.329,-0.9982 -0.7451,0.499 -1.1689,1.3309 -1.9962,1.3309l-2.6616 0c-0.7459,0 -2.6617,-1.3783 -2.6617,-2.3291l0 -0.6654c0,-4.4988 6.6542,-2.9306 6.6542,-4.3256 0,-1.0698 -0.535,-2.9945 -1.6636,-2.9945l-2.3289 0c0.4081,1.5288 0.9981,0.84 0.9981,1.9964zm7.6522 -3.3274l1.6746 0.0739 2.9833 -0.4065 0 0.9981c1.6107,-0.4301 1.1122,-1.3309 2.3289,-1.3309l0.9982 0c2.7436,0 5.3233,2.4936 5.3233,4.9909l0 2.3292c0,1.1638 -2.3438,3.66 -3.9925,3.66l-0.6655 0c-1.431,0 -1.8034,-0.388 -2.9124,-0.6754l0.5836 5.6663 1.3307 0 -0.0018 0.9596 -6.6384 0.3231 -0.1048 -0.4955 1.5903 -0.4662 -1.1666 -14.6284 -1.3309 0 0 -0.9982zm-79.2778 14.6494l0.1019 1.4128 4.9824 -0.4238c0.7245,-1.0822 1.9962,-1.8637 1.9962,-3.66l0 -1.3309 0.6654 0 -0.0766 1.3391 0.3932 4.1625 -13.9576 1.4857 0 -0.9982 1.6636 0 0.1389 -1.0098 -1.137 -13.9631 -2.329 0c0.4533,-1.6977 5.8192,-1.3309 7.985,-1.3309l0 0.6654 -1.7587 0.0093 1.3323 13.6419zm24.7139 -16.9785c0.7758,0 1.6635,0.8878 1.6635,1.6637l0 0.6654c0,0.8012 -1.195,1.9964 -1.9962,1.9964 -0.8011,0 -1.9962,-1.1952 -1.9962,-1.9964l0 -0.9982c0,-0.7788 0.5521,-1.3309 1.3308,-1.3309l0.9981 0zm16.9681 -1.3309c1.1212,0 2.3289,0.588 2.3289,1.6636l0 0.6655c0,1.0757 -1.2077,1.6637 -2.3289,1.6637 -0.9442,0 -1.6635,-1.1485 -1.6635,-1.9964 0,-0.8479 0.7193,-1.9964 1.6635,-1.9964zm68.2049 1.9964c1.2455,-0.3326 2.1683,-1.331 3.6597,-1.331l0.3327 0c6.6695,0 1.1204,9.8884 5.3233,9.982l0 0.6655 -6.3168 0.3944 -0.0046 -0.7272 0.9981 0c0,-1.6045 0.0248,-8.9837 -1.3308,-8.9837 -3.3335,0 -1.9963,4.8199 -1.9963,7.6528l0 1.6637 1.6635 0 0.0565 0.4033 -5.3581 0.7495 -1.3525 -0.1546 0 -0.9982 1.3309 0c0,-2.2596 -0.106,-3.5709 -0.3092,-5.3474 -0.29,-2.5371 0.983,-3.5769 -1.687,-3.6364l5.0066 -1.2433 -0.016 0.9106zm-52.5677 1.331l0 3.3272c0,2.969 0.7774,8.651 3.327,8.651l0.9981 0c2.531,0 4.2674,-3.3931 4.3252,-5.9891l0.9982 0 0 5.9891 -0.6654 0 0 -0.6654c-2.356,0.0525 -2.1093,1.3309 -5.3234,1.3309l-1.6635 0c-3.2029,0 -6.3214,-4.4474 -6.3214,-7.9856l0 -2.3291c0,-4.1139 3.7577,-6.9873 7.9849,-6.9873l0.6654 0c1.552,0 1.0436,0.6654 3.3271,0.6654l0 -0.6654 0.9129 0.0066 0.418 5.9825 -0.9981 0c-0.0404,-1.8108 -3.0055,-5.3237 -4.658,-5.3237 -2.0815,0 -3.327,1.845 -3.327,3.9929zm-79.8413 33.2724c2.3505,0.0006 8.0317,-0.6997 10.9472,-1.0214 2.8244,-0.3117 7.5501,-0.5754 10.5376,-1.1073 3.1011,-0.5519 7.4584,-0.8579 10.4366,-1.2081 3.033,-0.3566 7.6292,-0.8723 10.6523,-0.9926 6.8006,-0.2706 14.3121,-2.0582 21.2999,-1.9896 3.5819,0.0352 7.4387,-0.6995 10.6544,-0.9904 3.5342,-0.3195 7.5242,-0.4532 10.7069,-0.938 6.939,-1.0568 15.2235,-0.3753 22.0212,-1.6011 6.7301,-1.2137 14.257,-1.2523 21.4957,-1.7939 6.1127,-0.4573 15.0722,-1.1071 21.2118,-2.0778 4.9622,-0.7846 16.1781,-1.9176 21.372,-1.9176l0 -1.6636 -2.9944 -37.9313 -0.9981 0c-3.0018,0 -8.3246,0.4113 -10.73,0.9148 -3.3363,0.6983 -7.3401,0.4312 -10.5371,1.1076 -5.8415,1.2361 -14.5273,0.9287 -20.9032,2.0537 -12.8423,2.266 -28.8905,2.0201 -42.6462,3.6003 -14.0747,1.6168 -28.6844,1.7808 -43.9549,2.2915 -2.6438,0.0884 -7.1201,1.357 -10.2919,1.3529 -4.0439,-0.0052 -7.3198,1.0085 -10.65,0.9948 -6.2132,-0.0255 -14.1849,1.9918 -20.9148,1.9878l3.285 40.9293z"/>
    <path id="_321753000" class="fil1" d="M176.661 163.047c0,-0.7666 0.2315,-0.9982 0.9981,-0.9982l0.3326 0c1.1684,0 1.3309,1.4765 1.3309,2.662l0 0.9981 -2.6616 0 0 -2.6619zm6.3158 3.2571c-0.0474,-2.3093 -1.2746,-4.9207 -3.6542,-4.9207l-1.6635 0c-2.1861,0 -4.6579,2.0894 -4.6579,4.3255l0 0.9982c0,2.6063 2.2361,5.6564 4.6579,5.6564l0.9981 0c3.0046,0 4.6579,-1.5418 4.6579,-4.6582 -1.9623,1.4378 -0.7587,3.66 -4.6579,3.66 -0.9228,0 -1.6636,-2.4244 -1.6636,-3.66l0.0057 -0.928 5.9775 -0.4732z"/>
    <path id="_321752112" class="fil0" d="M85.8324 169.701l0 1.9964c0,1.1854 0.1625,2.6618 1.3308,2.6618l0.3327 0c0.7666,0 0.9981,-0.2315 0.9981,-0.9982l0 -2.6618c0,-1.0217 -0.308,-1.9964 -1.3308,-1.9964l-0.3327 0c-0.7666,0 -0.9981,0.2315 -0.9981,0.9982z"/>
    <path id="_321751992" class="fil1" d="M150.71 165.709c-0.0864,-0.7259 0.932,-1.6637 1.6635,-1.6637l0.6654 0c0.746,0 0.7304,0.2634 1.3308,0.6656l0.7972 7.3054c-0.0567,0.6895 -0.5892,1.6783 -1.4626,1.6783l-0.9981 0c-0.746,0 -0.7303,-0.2634 -1.3308,-0.6655l-0.6654 -7.3201zm-3.6598 2.9946c0,3.0696 1.9351,5.6564 4.9906,5.6564l2.3289 0c1.8939,0 4.3253,-2.8989 4.3253,-4.6582l0 -1.3309c0,-2.4943 -3.2196,-4.991 -5.9888,-4.991 -2.7374,0 -5.656,2.6819 -5.656,5.3237z"/>
    <path id="_321752616" class="fil0" d="M138.4 166.707l-0.0854 1.0056 0.418 5.3163c0.4535,0.6772 1.2272,1.6637 2.329,1.6637 1.2118,0 1.789,-1.7211 1.7486,-3.003l-0.4178 -4.6499c-0.4726,-0.7058 -0.7221,-1.6636 -1.6636,-1.6636l-0.9981 0c-0.7788,0 -1.3307,0.552 -1.3307,1.3309z"/>
    <path id="_321751896" class="fil0" d="M125.425 172.363l0 0.3328c0,0.8836 0.2644,2.6618 0.9981,2.6618 1.0215,0 1.9963,-0.3081 1.9963,-1.331l0 -3.3272c-1.4765,0 -2.9944,0.2805 -2.9944,1.6636z"/>
    <path id="_321752376" class="fil1" d="M125.425 172.363c0,-1.3831 1.5179,-1.6636 2.9944,-1.6636l0 3.3272c0,1.0229 -0.9748,1.331 -1.9963,1.331 -0.7337,0 -0.9981,-1.7782 -0.9981,-2.6618l0 -0.3328zm0 -3.9927c0,-1.1564 -0.59,-0.4676 -0.9981,-1.9964l2.3289 0c1.1286,0 1.6636,1.9247 1.6636,2.9945 0,1.395 -6.6542,-0.1732 -6.6542,4.3256l0 0.6654c0,0.9508 1.9158,2.3291 2.6617,2.3291l2.6616 0c0.8273,0 1.2511,-0.8319 1.9962,-1.3309 0.7207,0.4827 1.1076,0.9982 2.329,0.9982 1.4703,0 2.5387,-1.5179 2.6616,-2.9946l-1.5713 1.1047 -0.852 -6.7526c-0.7993,-1.3433 -2.0054,-2.3376 -4.2308,-2.3376l-1.6636 0c-1.5538,0 -3.327,1.2859 -3.327,2.9946l0 0.3327c0,0.7666 0.2316,0.9982 0.9982,0.9982l0.9981 0c0.7666,0 0.9981,-0.2316 0.9981,-0.9982l0 -0.3327z"/>
    <path id="_321752256" class="fil1" d="M111.118 164.711c0,-2.1479 1.2455,-3.9929 3.327,-3.9929 1.6525,0 4.6176,3.5129 4.658,5.3237l0.9981 0 -0.418 -5.9825 -0.9129 -0.0066 0 0.6654c-2.2835,0 -1.7751,-0.6654 -3.3271,-0.6654l-0.6654 0c-4.2272,0 -7.9849,2.8734 -7.9849,6.9873l0 2.3291c0,3.5382 3.1185,7.9856 6.3214,7.9856l1.6635 0c3.2141,0 2.9674,-1.2784 5.3234,-1.3309l0 0.6654 0.6654 0 0 -5.9891 -0.9982 0c-0.0578,2.596 -1.7942,5.9891 -4.3252,5.9891l-0.9981 0c-2.5496,0 -3.327,-5.682 -3.327,-8.651l0 -3.3272z"/>
    <path id="_321752304" class="fil1" d="M138.4 166.707c0,-0.7789 0.5519,-1.3309 1.3307,-1.3309l0.9981 0c0.9415,0 1.191,0.9578 1.6636,1.6636l0.4178 4.6499c0.0404,1.2819 -0.5368,3.003 -1.7486,3.003 -1.1018,0 -1.8755,-0.9865 -2.329,-1.6637l-0.418 -5.3163 0.0854 -1.0056zm-5.3234 -0.6655l1.3309 0 1.1666 14.6284 -1.5903 0.4662 0.1048 0.4955 6.6384 -0.3231 0.0018 -0.9596 -1.3307 0 -0.5836 -5.6663c1.109,0.2874 1.4814,0.6754 2.9124,0.6754l0.6655 0c1.6487,0 3.9925,-2.4962 3.9925,-3.66l0 -2.3292c0,-2.4973 -2.5797,-4.9909 -5.3233,-4.9909l-0.9982 0c-1.2167,0 -0.7182,0.9008 -2.3289,1.3309l0 -0.9981 -2.9833 0.4065 -1.6746 -0.0739 0 0.9982z"/>
    <path id="_321752352" class="fil1" d="M84.8343 181.347c0,-0.7459 0.2633,-0.7303 0.671,-1.2785l4.3196 -0.3851 0.9981 0c0.7666,0 0.9981,0.2315 0.9981,0.9982l0 0.9982c0,0.8468 -1.131,1.5338 -1.672,2.2678l-3.3186 0.394c-1.2031,0.1655 -1.9962,-1.8155 -1.9962,-2.9946zm2.3289 -12.6437c1.0228,0 1.3308,0.9747 1.3308,1.9964l0 2.6618c0,0.7667 -0.2315,0.9982 -0.9981,0.9982l-0.3327 0c-1.1683,0 -1.3308,-1.4764 -1.3308,-2.6618l0 -1.9964c0,-0.7667 0.2315,-0.9982 0.9981,-0.9982l0.3327 0zm5.3233 1.6636c1.0916,0 1.2483,-0.6712 1.3309,-1.6636l0.6653 0 0.4109 5.6499 -0.0781 3.3338 -0.9981 0 0 0.6655 3.3271 0 2.9883 -0.3726 0.006 -0.6256 -1.3308 0 -0.7547 -10.3085c-1.1674,0.2866 -1.9919,0.6593 -3.5706,0.6593 -3.1287,0 -1.9818,-1.1266 -4.6578,0.6655 -0.7794,-0.1816 -0.9829,-0.3328 -1.9963,-0.3328l-1.6635 0c-0.8077,0 -2.9944,1.7022 -2.9944,2.6619l0 1.9964c0,1.2168 0.9008,0.7183 1.3309,2.3291 -1.1261,0.3007 -1.6635,0.9152 -1.6635,2.3291 0,0.9861 0.8824,1.6596 1.3308,2.3291 -0.6203,0.9263 -1.3308,1.1501 -1.3308,2.6618 0,1.1259 2.4969,2.6619 3.327,2.6619l2.6617 0c2.5046,0 4.3252,-2.9257 4.3252,-5.6564 0,-3.8732 -4.0794,-2.6619 -7.3196,-2.6619l-1.6635 0c0.2747,-3.3014 7.3195,-0.3138 7.3195,-4.3255l0 -1.9964 0.9981 0z"/>
    <path id="_321752232" class="fil1" d="M81.1745 178.685l-1.1444 -9.6311 -3.8462 -0.0181c-0.9204,0 -0.8001,0.2567 -0.9982,0.9982l1.6636 0 0.4114 6.316 -0.0787 2.6678 -2.6616 0 -0.9999 -9.6491 -4.9771 0.7445 -0.0117 0.5863 1.3308 0 0.7954 7.3072c-0.1015,0.3007 -1.3991,1.6765 -2.1262,1.6765 -2.1174,0 -1.9963,-6.2461 -1.9963,-8.651l0 -0.9982c-1.4987,0.0334 -4.9613,-0.0249 -5.3233,1.3309l1.6636 0c0,3.2362 0.0202,9.6493 3.327,9.6493l1.6636 0c1.91,0 1.4451,-0.9173 2.9943,-1.331l0 0.6654 11.6548 -0.8846 -0.0101 -0.779 -1.3308 0z"/>
    <path id="_321752496" class="fil1" d="M52.4666 166.051l1.7587 -0.0093 0 -0.6654c-2.1658,0 -7.5317,-0.3668 -7.985,1.3309l2.329 0 1.137 13.9631 -0.1389 1.0098 -1.6636 0 0 0.9982 13.9576 -1.4857 -0.3932 -4.1625 0.0766 -1.3391 -0.6654 0 0 1.3309c0,1.7963 -1.2717,2.5778 -1.9962,3.66l-4.9824 0.4238 -0.1019 -1.4128 -1.3323 -13.6419z"/>
    <path id="_321752160" class="fil0" d="M84.8343 181.347c0,1.1791 0.7931,3.1601 1.9962,2.9946l3.3186 -0.394c0.541,-0.734 1.672,-1.421 1.672,-2.2678l0 -0.9982c0,-0.7667 -0.2315,-0.9982 -0.9981,-0.9982l-0.9981 0 -4.3196 0.3851c-0.4077,0.5482 -0.671,0.5326 -0.671,1.2785z"/>
    <path id="_321751392" class="fil3" d="M65.87 195.654c5.5981,4.8663 29.3027,12.3111 40.2575,12.3111l9.6485 0c11.0557,0 26.0099,-3.2163 33.5468,-6.7113 4.7777,-2.2154 8.7656,-4.1977 13.2249,-6.7379 2.6525,-1.511 10.0784,-6.4597 11.4519,-8.5111 -4.4092,0 -9.7757,0.4503 -13.9016,1.0702 -4.1832,0.6286 -8.9466,0.6757 -13.3083,1.3309 -1.974,0.2966 -4.8627,0.0282 -6.9264,0.3932 -1.7189,0.304 -4.9185,0.8209 -6.4413,0.8784 -3.156,0.1192 -10.4091,0.5521 -13.5208,1.1183 -8.0712,1.4688 -51.3276,2.9795 -54.0312,4.8582z"/>
   </g>
   <rect id="_321751248" class="fil6" x="-80.3332" y="33.1453" width="386.895" height="180.946"/>
  </g>
 </g>
</svg>
