<?xml version="1.0" encoding="UTF-8"?>
<!DOCTYPE svg PUBLIC "-//W3C//DTD SVG 1.1//EN" "http://www.w3.org/Graphics/SVG/1.1/DTD/svg11.dtd">
<!-- Creator: CorelDRAW -->
<svg xmlns="http://www.w3.org/2000/svg" xml:space="preserve" width="215.9mm" height="279.4mm" style="shape-rendering:geometricPrecision; text-rendering:geometricPrecision; image-rendering:optimizeQuality; fill-rule:evenodd; clip-rule:evenodd"
viewBox="0 0 215.9 279.4"
 xmlns:xlink="http://www.w3.org/1999/xlink">
 <defs>
  <style type="text/css">
   <![CDATA[
    .fil1 {fill:#342A2B}
    .fil4 {fill:#545353}
    .fil2 {fill:#8E1D23}
    .fil3 {fill:#EC222A}
    .fil0 {fill:#FDFDFD}
   ]]>
  </style>
 </defs>
 <g id="Capa_x0020_1">
  <metadata id="CorelCorpID_0Corel-Layer"/>
  <g id="_318200648">
   <polygon id="_100351232" class="fil0" points="125.601,54.9917 125.601,55.0222 125.634,54.9893 125.637,54.9687 "/>
   <path id="_100350680" class="fil1" d="M125.774 55.0019l0.001 0.013c0,0.0164 0.0427,0.0443 0.0612,0.0459 -0.0014,-0.0177 -0.0278,-0.024 -0.0389,-0.035 -0.0218,-0.0216 0.0023,-0.0517 -0.0176,-0.0569l-0.0057 0.033z"/>
   <path id="_100351064" class="fil0" d="M125.779 54.9689c0.0199,0.0052 -0.0042,0.0353 0.0176,0.0569 0.0111,0.011 0.0375,0.0173 0.0389,0.035 -0.0185,-0.0016 -0.0612,-0.0295 -0.0612,-0.0459l-0.001 -0.013 0.0057 -0.033zm-0.1067 -0.0331c0.0017,0.0068 0.0026,0.0048 0.0026,0.0102 0,0.0057 -0.002,0.0056 -0.0038,0.0105l-0.0064 0.0278c0.0199,-0.0054 0.0159,-0.0243 0.028,-0.0332 0.0001,0.0001 0.0026,0.0048 0.0026,0.0051 0,0.014 -0.025,0.0413 -0.0367,0.0449 -0.0265,0.0082 -0.0459,0.0234 -0.0577,0.0265 0.0035,0.0053 0.0077,0.0066 0.0077,0.0128l0 0.0051c0,0.0083 -0.0077,0.0067 -0.0077,0.0204l0 0.0102c0.0177,-0.0015 0.0218,-0.0117 0.0362,-0.0148 0.015,-0.0033 0.0308,-0.0056 0.048,-0.0056l0.0357 0c0.0331,0 0.076,0.0126 0.0978,0.0246 0.0143,0.0078 0.0721,0.0516 0.0731,0.0519 0,-0.0212 0.0127,-0.0549 0.0127,-0.0587 0,-0.0033 -0.0212,-0.0295 -0.0249,-0.0337 -0.0138,-0.0161 -0.0138,-0.0208 -0.0245,-0.0367 -0.0126,-0.0185 -0.0318,-0.0673 -0.0552,-0.0673l-0.0052 -0.001 -0.0381 0.0061c-0.0265,0.0045 -0.0643,-0.0127 -0.074,-0.0127 -0.0014,0 -0.0076,0.0058 -0.0102,0.0076z"/>
   <path id="_100356896" class="fil0" d="M125.764 55.3923l0.0281 0c0.0013,0.016 0.023,0.0206 0.0331,0.0357l0.008 0.0055 0.0074 -0.0055 0 -0.0025 0.0076 -0.0077 0 -0.0025 0.0077 -0.0077c0.0121,-0.0229 0.0127,-0.029 0.0127,-0.0637 0.0129,-0.0062 0.0153,-0.0024 0.0153,-0.023l0.0001 -0.0304 0.005 -0.0027 0.0102 -0.0102c0,-0.0185 0.0047,-0.0226 -0.0107,-0.0223l-0.0148 0.0376c-0.0008,-0.003 -0.0025,-0.007 -0.0025,-0.0077 0,-0.0143 0.0076,-0.0238 0.0076,-0.0281l0 -0.0025c0,-0.0091 -0.0274,-0.0332 -0.05,-0.0313l0.0262 0.0215 -0.0017 0.0021 -0.0076 0c-0.0094,0 -0.0077,-0.0102 -0.023,-0.0102l-0.0102 0c-0.0069,0 -0.007,0.0013 -0.0128,0.0026 0.0044,0.0163 0.023,0.0009 0.023,0.0178l0 0.0026c0,0.0083 -0.0111,0.0153 -0.0204,0.0153l-0.0026 0c-0.0059,0 -0.0127,-0.0068 -0.0127,-0.0127l0 -0.0077c-0.0102,0.0008 -0.0128,0.0049 -0.0128,0.0153l0 0.0077c0.009,0.002 0.0086,0.0051 0.0179,0.0051l0.0178 0 0 0.0051 -0.0229 0c-0.0086,0 -0.0179,-0.0046 -0.0179,-0.0128l0 -0.0102c0,-0.0088 0.0019,-0.0099 0.0026,-0.0179l-0.0102 0c-0.0095,0 -0.0115,-0.0024 -0.0159,-0.0082l0.0108 -0.0096 0.0345 0.001 0.0088 -0.0163c-0.0208,-0.0049 -0.0473,-0.0039 -0.0658,-0.0107 -0.0147,-0.0055 -0.0385,-0.0174 -0.0591,-0.0174l-0.0357 0c0.0028,0.0104 0.0246,0.0156 0.0342,0.022 0.0146,0.0097 0.0209,0.019 0.0321,0.0265 0,0.0167 0.0051,0.0162 0.0051,0.0306l0 0.0026c0,0.0229 -0.0128,0.042 -0.0128,0.0663l0 0.0051c0,0.0065 0.0087,0.0117 0.0129,0.0163l0.0149 0.0011 0.036 -0.0225c-0.0029,0.011 -0.0414,0.0382 -0.0485,0.0382l-0.0051 0c-0.0308,0 -0.0239,-0.0199 -0.0459,-0.0204 0.0035,-0.0128 0.0089,-0.0064 0.0147,-0.0287 0.0035,-0.0133 0.0134,-0.0151 0.0134,-0.0299l-0.0001 -0.0081 -0.0152 0.003c0.0034,-0.0128 0.0127,-0.0109 0.0127,-0.0204l0 -0.0026c0,-0.0113 -0.006,-0.0159 -0.0127,-0.0204 -0.0034,0.0071 -0.0049,0.0179 -0.0153,0.0179l-0.0026 0c-0.014,0 -0.0035,-0.023 -0.0153,-0.023 -0.0041,0 -0.0076,0.0015 -0.0076,0.0051 0,0.0129 0.0143,0.015 0.0178,0.0281 -0.003,0.0007 -0.0069,0.0025 -0.0076,0.0025 -0.0235,0 -0.0158,-0.0173 -0.0357,-0.0306 -0.0055,0.0029 -0.0128,0.0044 -0.0128,0.0127 0,0.003 0.0206,0.0246 0.0255,0.046 -0.0018,0.0035 -0.0102,0.0175 -0.0102,0.0204l0 0.0178c0,0.011 0.0064,0.0352 0.0179,0.0383 0.0006,-0.0074 0.0064,-0.023 0.0127,-0.023 0.0042,0 0.0077,0.0015 0.0077,0.0051 0,0.0061 -0.0041,0.0075 -0.0077,0.0128 0.0011,0.0127 0.0061,0.0433 0.0179,0.0433 0.0059,0 0.0076,-0.0018 0.0076,-0.0076l0 -0.0026c0,-0.0132 -0.0148,-0.0023 -0.0153,-0.0255 0.0126,0.0034 0.0074,0.0098 0.0235,0.0124 0.0096,0.0016 0.0195,-0.0022 0.0326,-0.0022 0.0085,0 0.0054,0.0051 0.0102,0.0051 0.0086,0 0.0243,-0.0155 0.0459,-0.0051z"/>
   <path id="_100356968" class="fil1" d="M125.792 55.4051l-0.0026 -0.01 -0.0255 -0.0028c-0.0216,-0.0104 -0.0373,0.0051 -0.0459,0.0051 -0.0048,0 -0.0017,-0.0051 -0.0102,-0.0051 -0.0131,0 -0.023,0.0038 -0.0326,0.0022 -0.0161,-0.0026 -0.0109,-0.009 -0.0235,-0.0124 0.0005,0.0232 0.0153,0.0123 0.0153,0.0255l0 0.0026c0,0.0058 -0.0017,0.0076 -0.0076,0.0076 -0.0118,0 -0.0168,-0.0306 -0.0179,-0.0433 0.0036,-0.0053 0.0077,-0.0067 0.0077,-0.0128 0,-0.0036 -0.0035,-0.0051 -0.0077,-0.0051 -0.0063,0 -0.0121,0.0156 -0.0127,0.023 -0.0115,-0.0031 -0.0179,-0.0273 -0.0179,-0.0383l0 -0.0178c0,-0.0029 0.0084,-0.0169 0.0102,-0.0204 -0.0049,-0.0214 -0.0255,-0.043 -0.0255,-0.046 0,-0.0083 0.0073,-0.0098 0.0128,-0.0127 0.0199,0.0133 0.0122,0.0306 0.0357,0.0306 0.0007,0 0.0046,-0.0018 0.0076,-0.0025 -0.0035,-0.0131 -0.0178,-0.0152 -0.0178,-0.0281 0,-0.0036 0.0035,-0.0051 0.0076,-0.0051 0.0118,0 0.0013,0.023 0.0153,0.023l0.0026 0c0.0104,0 0.0119,-0.0108 0.0153,-0.0179 0.0067,0.0045 0.0127,0.0091 0.0127,0.0204l0 0.0026c0,0.0095 -0.0093,0.0076 -0.0127,0.0204l0.0152 -0.003 0.0001 0.0081c0,0.0148 -0.0099,0.0166 -0.0134,0.0299 -0.0058,0.0223 -0.0112,0.0159 -0.0147,0.0287 0.022,0.0005 0.0151,0.0204 0.0459,0.0204l0.0051 0c0.0071,0 0.0456,-0.0272 0.0485,-0.0382l-0.036 0.0225 -0.0149 -0.0011c-0.0042,-0.0046 -0.0129,-0.0098 -0.0129,-0.0163l0 -0.0051c0,-0.0243 0.0128,-0.0434 0.0128,-0.0663l0 -0.0026c0,-0.0144 -0.0051,-0.0139 -0.0051,-0.0306 -0.0112,-0.0075 -0.0175,-0.0168 -0.0321,-0.0265 -0.0096,-0.0064 -0.0314,-0.0116 -0.0342,-0.022l0.0357 0c0.0206,0 0.0444,0.0119 0.0591,0.0174 0.0185,0.0068 0.045,0.0058 0.0658,0.0107l-0.0088 0.0163 -0.0345 -0.001 -0.0108 0.0096c0.0044,0.0058 0.0064,0.0082 0.0159,0.0082l0.0102 0c-0.0007,0.008 -0.0026,0.0091 -0.0026,0.0179l0 0.0102c0,0.0082 0.0093,0.0128 0.0179,0.0128l0.0229 0 0 -0.0051 -0.0178 0c-0.0093,0 -0.0089,-0.0031 -0.0179,-0.0051l0 -0.0077c0,-0.0104 0.0026,-0.0145 0.0128,-0.0153l0 0.0077c0,0.0059 0.0068,0.0127 0.0127,0.0127l0.0026 0c0.0093,0 0.0204,-0.007 0.0204,-0.0153l0 -0.0026c0,-0.0169 -0.0186,-0.0015 -0.023,-0.0178 0.0058,-0.0013 0.0059,-0.0026 0.0128,-0.0026l0.0102 0c0.0153,0 0.0136,0.0102 0.023,0.0102l0.0076 0 0.0017 -0.0021 -0.0262 -0.0215c0.0226,-0.0019 0.05,0.0222 0.05,0.0313l0 0.0025c0,0.0043 -0.0076,0.0138 -0.0076,0.0281 0,0.0007 0.0017,0.0047 0.0025,0.0077l0.0148 -0.0376c0.0154,-0.0003 0.0107,0.0038 0.0107,0.0223l-0.0081 0.008 0.0025 0.0016 0.0056 -0.0045c0.0412,0 0.0966,-0.0093 0.1224,-0.023l0.0026 -0.0051c-0.0208,-0.0139 -0.0481,-0.0384 -0.068,-0.0494 -0.0299,-0.0165 -0.057,-0.0183 -0.057,-0.0603 0,-0.0155 0.0016,-0.0239 0.0026,-0.0382 0.0008,-0.0122 0.0102,-0.0276 0.0102,-0.0332 0,-0.0058 -0.0439,-0.0558 -0.0522,-0.0727 -0.0086,-0.0174 -0.0355,-0.0726 -0.055,-0.0726l-0.0178 0c-0.0031,0 -0.0188,0.0076 -0.0357,0.0076l-0.0078 0.0009 -0.0407 -0.006c-0.0042,-0.0064 -0.0099,-0.0102 -0.0204,-0.0102 -0.0062,0 -0.0336,0.0302 -0.0428,0.0362 -0.0081,0.0053 -0.0398,0.0292 -0.0439,0.0352 0,0.0297 -0.0039,0.0529 -0.0078,0.0789 -0.0043,0.0282 -0.0062,0.0486 -0.0379,0.0491l-0.0639 0.025c0.0087,-0.0007 0.0411,-0.013 0.0597,-0.0168 0.0293,-0.0059 0.0355,-0.0049 0.0663,0.0005 0.0219,0.0038 0.0138,0.0044 0.0282,0.01 0.007,0.0028 0.0257,0.0045 0.0326,0.0057 0.0223,0.0038 0.0491,0.0115 0.0657,0.0133 0.0226,0.0026 0.0459,0.0045 0.0654,0.0111 0.0247,0.0082 0.0429,0.0063 0.0666,0.0125 0.0181,0.0046 0.0361,0.0168 0.0516,0.0249 0.0137,0.0072 0.0454,0.0135 0.0459,0.0332 -0.0192,-0.0016 -0.0569,-0.0282 -0.0792,-0.033 -0.0304,-0.0066 -0.0566,-0.0148 -0.0906,-0.0217 -0.0418,-0.0084 -0.0561,0.0035 -0.1002,-0.0119 -0.0134,-0.0047 -0.0268,-0.0162 -0.0388,-0.0174 -0.0142,-0.0015 -0.0474,-0.0104 -0.0483,-0.0104l-0.0229 0c-0.0095,0 -0.0115,0.0025 -0.0154,0.0087l0.0358 0.0041c-0.0004,0.0169 -0.0031,0.0127 -0.0205,0.0127 -0.017,-0.0001 -0.015,0.0038 -0.0271,0.0085 -0.0158,0.0062 -0.0426,0.0065 -0.0468,0.0221l0.0536 -0.0025 0.0102 -0.0051c-0.0005,0.0227 -0.023,0.0144 -0.0237,0.0582l-0.0554 -0.02c0.0138,0.0189 0.047,0.0145 0.0666,0.0434l-0.0028 0.0357c-0.0004,0.004 0.008,0.0146 0.0095,0.0179l0.0032 0.0484c0.0117,0.0062 0.0167,0.0142 0.0204,0.0281l0.0026 0.0051 0.0025 0.0025 0.0051 0.0077 0.0026 0.0025 0.0025 0.0026 0.0026 0.0051 0.0025 0.0025 0.0051 0.0077 0 0.0025 0.0051 0.0051c0.0107,-0.0047 0.0328,0.0561 0.0918,0.0561l0.0102 0c0.0209,0 0.0443,-0.0122 0.0485,-0.028 -0.0084,0.0019 -0.0269,0.0127 -0.0357,0.0127 -0.0093,0 -0.0161,-0.0106 -0.023,-0.0153l-0.0204 0.0026c-0.0103,0.0016 -0.0076,-0.0118 -0.0076,-0.0205l-0.0255 -0.0152c0.0026,-0.004 0.0034,-0.0077 0.0102,-0.0077l0.0076 0c0.0112,0 0.0093,0.0051 0.0204,0.0051l0.0357 0 0 -0.0076 -0.0357 0c-0.0087,0 -0.0201,-0.0104 -0.0204,-0.023l0.0153 0c0.0062,0 0.0075,0.0042 0.0128,0.0077l0.0382 0c0.0108,0.0203 0.0299,0.0357 0.051,0.0459l0.0026 -0.0026 -0.0026 -0.0025 -0.0025 -0.0026 -0.02 -0.0185 0.0251 0.0134c-0.0013,-0.0155 -0.0289,-0.0323 -0.0448,-0.0343l0.0197 0.0194 -0.003 0.0022c-0.0008,0.0008 -0.0016,-0.0025 -0.002,-0.0031 -0.0005,-0.0005 -0.0017,-0.002 -0.0024,-0.0027 -0.0024,-0.0026 -0.0038,-0.0038 -0.0064,-0.0063 -0.0025,-0.0025 -0.0121,-0.011 -0.0121,-0.0134 0,-0.0079 0.0075,-0.0102 0.0153,-0.0102l0.0127 0c0.0083,0 0.002,0.0022 0.0128,0.0051zm0.0153 0.0561l-0.0026 0 -0.0025 0.0025 0.0051 -0.0025zm-0.3239 -0.3137c-0.0075,-0.009 -0.0382,0.0166 -0.0382,0.0255l0 0.0076c0,0.0146 0.0237,0.0371 0.0331,0.0434l0.0204 0.0076c-0.0111,-0.0165 -0.0484,-0.0303 -0.0484,-0.0586 0,-0.0075 0.0263,-0.0219 0.0331,-0.0255zm0.4004 0.1734l0.0023 -0.0256 0.0028 -0.0075 -0.005 0.0027 -0.0001 0.0304zm-0.0689 0.1046l0.0026 0.0025 0.0025 0.0026 0.0026 0.0025 0.0025 0 0.003 0.003 0.0016 -0.0025 -0.0046 -0.0056 -0.0284 -0.0234 -0.002 0.0028 0.0202 0.0181zm-0.1786 -0.4568l-0.0031 0.0206 -0.0327 0.0329 0.0001 -0.0305 0.0357 -0.023zm0.0346 -0.0122c0.0018,-0.0049 0.0038,-0.0048 0.0038,-0.0105 0,-0.0054 -0.0009,-0.0034 -0.0026,-0.0102 0.0026,-0.0018 0.0088,-0.0076 0.0102,-0.0076 0.0097,0 0.0475,0.0172 0.074,0.0127l0.0381 -0.0061 0.0052 0.001c0.0234,0 0.0426,0.0488 0.0552,0.0673 0.0107,0.0159 0.0107,0.0206 0.0245,0.0367 0.0037,0.0042 0.0249,0.0304 0.0249,0.0337 0,0.0038 -0.0127,0.0375 -0.0127,0.0587 -0.001,-0.0003 -0.0588,-0.0441 -0.0731,-0.0519 -0.0218,-0.012 -0.0647,-0.0246 -0.0978,-0.0246l-0.0357 0c-0.0172,0 -0.033,0.0023 -0.048,0.0056 -0.0144,0.0031 -0.0185,0.0133 -0.0362,0.0148l0 -0.0102c0,-0.0137 0.0077,-0.0121 0.0077,-0.0204l0 -0.0051c0,-0.0062 -0.0042,-0.0075 -0.0077,-0.0128 0.0118,-0.0031 0.0312,-0.0183 0.0577,-0.0265 0.0117,-0.0036 0.0367,-0.0309 0.0367,-0.0449 0,-0.0003 -0.0025,-0.005 -0.0026,-0.0051 -0.0121,0.0089 -0.0081,0.0278 -0.028,0.0332l0.0064 -0.0278z"/>
   <path id="_100357256" class="fil0" d="M125.486 55.1449l-0.0026 0.0026c-0.0068,0.0036 -0.0331,0.018 -0.0331,0.0255 0,0.0283 0.0373,0.0421 0.0484,0.0586l-0.0204 -0.0076c-0.0087,0.013 -0.0537,0.0396 -0.0708,0.0567 -0.0185,0.0186 -0.0469,0.0464 -0.0563,0.0712 -0.0021,0.0054 -0.0178,0.0315 -0.0229,0.0409 -0.0109,0.0201 -0.0097,0.0239 -0.0175,0.0463 -0.0051,0.0148 -0.0239,0.095 -0.0135,0.1113 0.0108,-0.0405 0.1098,-0.0556 0.152,-0.0724 0.026,-0.0103 0.0547,-0.0211 0.0797,-0.0324 0.0078,-0.0035 0.0247,-0.0183 0.0293,-0.0268 0.0045,-0.0082 0.0048,-0.0116 0.0068,-0.0213 0.0031,-0.0148 0.007,-0.0086 0.0101,-0.0205l-0.0032 -0.0484c-0.0015,-0.0033 -0.0099,-0.0139 -0.0095,-0.0179l0.0028 -0.0357c-0.0196,-0.0289 -0.0528,-0.0245 -0.0666,-0.0434l0.0554 0.02c0.0007,-0.0438 0.0232,-0.0355 0.0237,-0.0582l-0.0102 0.0051 -0.0536 0.0025c0.0042,-0.0156 0.031,-0.0159 0.0468,-0.0221 0.0121,-0.0047 0.0101,-0.0086 0.0271,-0.0085 0.0174,0 0.0201,0.0042 0.0205,-0.0127l-0.0358 -0.0041c0.0039,-0.0062 0.0059,-0.0087 0.0154,-0.0087l0.0229 0c0.0009,0 0.0341,0.0089 0.0483,0.0104 0.012,0.0012 0.0254,0.0127 0.0388,0.0174 0.0441,0.0154 0.0584,0.0035 0.1002,0.0119 0.034,0.0069 0.0602,0.0151 0.0906,0.0217 0.0223,0.0048 0.06,0.0314 0.0792,0.033 -0.0005,-0.0197 -0.0322,-0.026 -0.0459,-0.0332 -0.0155,-0.0081 -0.0335,-0.0203 -0.0516,-0.0249 -0.0237,-0.0062 -0.0419,-0.0043 -0.0666,-0.0125 -0.0195,-0.0066 -0.0428,-0.0085 -0.0654,-0.0111 -0.0166,-0.0018 -0.0434,-0.0095 -0.0657,-0.0133 -0.0069,-0.0012 -0.0256,-0.0029 -0.0326,-0.0057 -0.0144,-0.0056 -0.0063,-0.0062 -0.0282,-0.01 -0.0308,-0.0054 -0.037,-0.0064 -0.0663,-0.0005 -0.0186,0.0038 -0.051,0.0161 -0.0597,0.0168z"/>
   <path id="_100357424" class="fil2" d="M125.767 55.5045l0.0025 -0.0025 -0.0025 0.0025 -0.0128 0.0179 -0.0025 0.0025 -0.0026 0.0026 0.0026 -0.0026 0.0025 -0.0025 0.0128 -0.0179zm-0.0102 0.023l-0.0026 0.0025 -0.0025 0.0026 -0.0026 0.0051 -0.0025 0.0025 -0.0026 0.0026 -0.0025 0.0025 0.0025 -0.0025 0.0026 -0.0026 0.0025 -0.0025 0.0026 -0.0051 0.0025 -0.0026 0.0026 -0.0025 0.0178 -0.0153 0 -0.0077 0.0026 -0.0025 0.0025 -0.0026 0.0026 -0.0025 0.0025 -0.0026 0.0026 -0.0025 0.0025 -0.0026 0.0026 -0.0025 0.0025 -0.0026 0.0026 -0.0025 0.0025 -0.0026 0.0026 -0.0025 0.0025 -0.0026 0.0077 0c-0.0036,0.0134 -0.0462,0.0605 -0.0587,0.0638 0.0005,0.0049 -0.0001,0.0102 0.0051,0.0102 0.0082,0 0.0583,-0.0504 0.0587,-0.0689l0.0076 0 0.0128 0.0026 0.0051 -0.0102 0.0182 -0.0023 0.0175 -0.0258 0.0006 -0.0235 -0.0133 -0.0122 -0.0051 0 -0.0026 0.0026 -0.0025 -0.0026 -0.0077 0.0077 0.0077 0 -0.0026 0.0025 -0.0025 0.0026 -0.0026 0.0051 -0.0025 0.0025 -0.0026 0.0026 -0.0025 0.0025 -0.0026 0.0026 0.0026 -0.0026 0.0025 -0.0025 0.0026 -0.0026 0.0025 -0.0025 0.0026 -0.0051 0.0025 -0.0026 0.0026 -0.0025 0.0025 -0.0051 0.0026 -0.0026 0.0051 0c-0.0017,0.0069 -0.0026,0.0048 -0.0026,0.0102 0,0.0102 0.0051,0.0128 0.0051,0.023 0,0.0093 -0.007,0.0204 -0.0153,0.0204l-0.0073 -0.0001 -0.0029 -0.0076 0 0.0179 -0.0102 0.0076 -0.0077 0 -0.0127 -0.0051 -0.0077 0 -0.0025 0.0026 -0.0026 0.0025 -0.0025 0.0026 -0.0026 0.0025 -0.0025 0.0026 -0.0026 0.0025 -0.0025 0.0026 -0.0026 0.0025 -0.0025 0.0026 -0.0026 0.0025 -0.0025 0.0026 -0.0026 0.0025 -0.0178 0.023zm0.0842 -0.0995l-0.0074 0.0055 -0.008 -0.0055 0.0046 0.0056 -0.0016 0.0025 -0.003 -0.003 0 0.0026 0.0026 0.0025 0.0034 -0.0014 0.0094 -0.0088zm0 -0.0025l0.0076 -0.0077 -0.0076 0.0077z"/>
   <path id="_100357232" class="fil0" d="M125.798 55.4535l0.0025 0.0026 0.0026 0.0025 0.0025 0.0026 0.0026 0c0.0045,0.003 0.0146,0.0127 0.0204,0.0127 0.006,0 0.0102,-0.0042 0.0102,-0.0102l0 -0.0025c0,-0.0097 -0.0062,-0.017 -0.0102,-0.023l-0.0026 -0.0025 -0.0025 -0.0026 -0.0026 -0.0025 -0.0025 -0.0026 -0.0026 -0.0025 -0.0229 -0.0204c-0.0108,-0.0029 -0.0045,-0.0051 -0.0128,-0.0051l-0.0127 0c-0.0078,0 -0.0153,0.0023 -0.0153,0.0102 0,0.0024 0.0096,0.0109 0.0121,0.0134 0.0026,0.0025 0.004,0.0037 0.0064,0.0063 0.0007,0.0007 0.0019,0.0022 0.0024,0.0027 0.0004,0.0006 0.0012,0.0039 0.002,0.0031l0.003 -0.0022 -0.0197 -0.0194c0.0159,0.002 0.0435,0.0188 0.0448,0.0343l-0.0251 -0.0134 0.02 0.0185z"/>
   <path id="_100357472" class="fil3" d="M125.859 55.4102l-0.0025 0.0051 -0.0026 0.0025 -0.0025 0.0026 -0.0026 0.0051 -0.0025 0.0025 -0.0026 0.0026 -0.0025 0.0025 -0.0026 0.0026 0.0051 0.0178 0.0029 0.0076 0.0073 0.0001c0.0083,0 0.0153,-0.0111 0.0153,-0.0204 0,-0.0102 -0.0051,-0.0128 -0.0051,-0.023 0,-0.0054 0.0009,-0.0033 0.0026,-0.0102l-0.0051 0 -0.0026 0.0026z"/>
   <path id="_100356416" class="fil4" d="M125.076 55.7952c0.0516,0.0001 0.1127,-0.0154 0.1603,-0.0152 0.0255,0.0001 0.0506,-0.0077 0.0816,-0.0076 0.0243,0 0.0586,-0.0097 0.0789,-0.0104 0.1171,-0.0039 0.229,-0.0052 0.3369,-0.0176 0.1055,-0.0121 0.2285,-0.0102 0.3269,-0.0276 0.0489,-0.0086 0.1155,-0.0062 0.1602,-0.0157 0.0245,-0.0052 0.0552,-0.0031 0.0808,-0.0085 0.0184,-0.0038 0.0592,-0.007 0.0822,-0.007l0.0077 0 0.0229 0.2907 0 0.0128c-0.0398,0 -0.1257,0.0087 -0.1638,0.0147 -0.047,0.0074 -0.1157,0.0124 -0.1626,0.0159 -0.0554,0.0042 -0.1131,0.0045 -0.1647,0.0138 -0.0521,0.0094 -0.1156,0.0041 -0.1688,0.0122 -0.0244,0.0038 -0.055,0.0048 -0.0821,0.0072 -0.0246,0.0023 -0.0542,0.0079 -0.0817,0.0076 -0.0535,-0.0005 -0.1111,0.0132 -0.1632,0.0153 -0.0232,0.0009 -0.0584,0.0048 -0.0817,0.0076 -0.0228,0.0027 -0.0562,0.005 -0.08,0.0092 -0.0229,0.0041 -0.0591,0.0061 -0.0807,0.0085 -0.0224,0.0025 -0.0659,0.0079 -0.0839,0.0079l-0.0252 -0.3138zm1.0707 -0.1734l0.0052 0.0052 0.0024 -0.0409c-0.0113,-0.0488 -0.076,-0.0652 -0.1208,-0.0832 -0.0471,-0.0188 -0.1112,-0.0314 -0.1495,-0.057l0 -0.0281c-0.0031,-0.0046 -0.0153,-0.0157 -0.0153,-0.0204 0,-0.0113 0.005,-0.0433 0.0118,-0.0494 0.0124,-0.0111 0.0086,-0.0306 0.0081,-0.053l0.0107 -0.0123 -0.0056 0.0045 -0.0025 -0.0016 0.0081 -0.008 -0.0102 0.0102 -0.0028 0.0075 -0.0023 0.0256c0,0.0206 -0.0024,0.0168 -0.0153,0.023 0,0.0347 -0.0006,0.0408 -0.0127,0.0637l0.0025 0.0026 0.0026 -0.0026 0.0051 0 0.0133 0.0122 -0.0006 0.0235c0,0.0313 -0.0234,0.0756 -0.0457,0.0818l0.009 -0.0145 -0.0029 -0.0027 -0.0471 0.0349c0.005,0.0237 -0.0465,0.0138 -0.051,0.0025l0.0025 -0.0025 0.0026 -0.0026 0.0025 -0.0025 0.0026 -0.0051 0.0025 -0.0026 0.0026 -0.0025 0.0178 -0.023 0.0026 -0.0025 0.0025 -0.0026 0.0026 -0.0025 0.0025 -0.0026 0.0026 -0.0025 0.0025 -0.0026 0.0026 -0.0025 0.0025 -0.0026 0.0026 -0.0025 0.0025 -0.0026 0.0026 -0.0025 0.0025 -0.0026 0.0077 0 0.0127 0.0051 0.0077 0 0.0102 -0.0076 0 -0.0179 -0.0051 -0.0178 0.0026 -0.0026 0.0025 -0.0025 0.0026 -0.0026 0.0025 -0.0025 0.0026 -0.0051 0.0025 -0.0026 0.0026 -0.0025 -0.0077 0 0 0.0025 -0.0076 0.0077 0 0.0025 -0.0094 0.0088 -0.0034 0.0014 -0.0026 -0.0025 0 -0.0026 -0.0025 0 -0.0026 -0.0025 -0.0025 -0.0026 -0.0026 -0.0025 -0.0202 -0.0181 0.002 -0.0028 0.0284 0.0234c-0.0101,-0.0151 -0.0318,-0.0197 -0.0331,-0.0357l-0.0281 0 0.0255 0.0028 0.0026 0.01 0.0229 0.0204 0.0026 0.0025 0.0025 0.0026 0.0026 0.0025 0.0025 0.0026 0.0026 0.0025c0.004,0.006 0.0102,0.0133 0.0102,0.023l0 0.0025c0,0.006 -0.0042,0.0102 -0.0102,0.0102 -0.0058,0 -0.0159,-0.0097 -0.0204,-0.0127l-0.0051 0.0025 0.0025 -0.0025 -0.0025 -0.0026 -0.0026 -0.0025 -0.0025 -0.0026 0.0025 0.0026 0.0026 0.0025 -0.0026 0.0026 0.0026 0.0025 -0.0332 0.0383 -0.0025 0.0025 -0.0128 0.0179 -0.0025 0.0025 -0.0026 0.0026 -0.0127 0.0127c-0.0066,-0.0015 -0.0382,-0.0127 -0.0383,-0.0127l-0.0127 0c-0.0042,-0.0155 -0.0527,-0.0534 -0.0587,-0.0791l-0.0051 -0.0051c0.0015,0.018 0.0257,0.0495 0.0363,0.0607 0.0086,0.009 0.0148,0.016 0.0234,0.0251 0.0089,0.0094 0.0244,0.0025 0.0371,0.0143l-0.0432 -0.0057c-0.0142,-0.0269 -0.0504,-0.0353 -0.0612,-0.0816l-0.0051 0c0.0028,0.0335 0.0486,0.0628 0.0612,0.0816l-0.0241 0.0015 -0.055 -0.0398c0.0018,0.0217 0.0359,0.0332 0.0511,0.0426l0.0611 0.0059 0.0732 0.0183 -0.012 0.0455 -0.0101 -0.0169 -0.0026 0.0015c0.0008,0.0096 0.0032,0.0078 0.0031,0.0154l-0.003 0.0386 -0.0154 0.0047 -0.0459 -0.0026 -0.0102 0 0 0.0051 0.0127 0c0.014,0 0.0142,0.0052 0.0281,0.0052l0.0102 0c0.0191,0 0.0209,-0.0051 0.028,-0.0154 0.0014,0.0161 0.0179,0.0246 0.0179,0.0383 0,0.0147 -0.0117,0.0357 -0.023,0.0357l-0.0153 0c-0.0163,0 -0.0289,-0.0153 -0.0561,-0.0153 -0.0095,0 -0.014,0.0102 -0.0178,0.0102 -0.006,0 -0.0128,-0.0068 -0.0128,-0.0127l0 -0.0077c0,-0.0245 0.0141,-0.03 0.0229,-0.0433l-0.0076 -0.0358 0 -0.0025 -0.0178 -0.0612 -0.0102 -0.0102c-0.0396,0 -0.0885,-0.0596 -0.0918,-0.0995 0.0069,-0.0102 0.0122,-0.0112 0.0182,-0.0251 0.0043,-0.0099 0.0077,-0.0247 0.0132,-0.0341l0.017 0.021 0.0026 0.0051 0.0025 0.0025 0.0051 0.0077 0.0026 0.0025 0.0025 0.0026 0.0026 0.0051 0.0025 0.0025 0.0051 0.0077 -0.0051 -0.0077 -0.0025 -0.0025 -0.0026 -0.0051 -0.0025 -0.0026 -0.0026 -0.0025 -0.0051 -0.0077 -0.0025 -0.0025 -0.0026 -0.0051c-0.0037,-0.0139 -0.0087,-0.0219 -0.0204,-0.0281 -0.0031,0.0119 -0.007,0.0057 -0.0101,0.0205 -0.002,0.0097 -0.0023,0.0131 -0.0068,0.0213 -0.0046,0.0085 -0.0215,0.0233 -0.0293,0.0268 -0.025,0.0113 -0.0537,0.0221 -0.0797,0.0324 -0.0422,0.0168 -0.1412,0.0319 -0.152,0.0724l-0.0051 0.0408c-0.0025,0.0172 0.0095,0.0527 0.0139,0.0667l0.0014 -0.0055c-0.0016,-0.0182 -0.0102,-0.0284 -0.0102,-0.0433l0 -0.0383c0,-0.042 0.0454,-0.0539 0.0787,-0.064 0.0186,-0.0057 0.0376,-0.0089 0.0539,-0.0175 0.0081,-0.0043 0.0411,-0.0159 0.0519,-0.0195 0.0168,-0.0056 0.0341,-0.0139 0.0509,-0.0208 0.0162,-0.0067 0.013,0.0214 0.0251,0.0398 0.0099,0.0148 0.0199,0.0266 0.0334,0.038 0.0104,0.0089 0.0468,0.0248 0.0478,0.0262 -0.0551,0 -0.1607,-0.0042 -0.1607,0.0459l-0.0006 0.0638 0.0031 0.0887 -0.107 0.0082c-0.0069,-0.0046 -0.0302,-0.0376 -0.0349,-0.0467 -0.0056,-0.0107 -0.0241,-0.0485 -0.0289,-0.0554 -0.0083,0.0132 0.0279,0.0631 0.0362,0.0735 0.0357,0.0448 0.0034,0.0278 -0.0469,0.0357 -0.0354,0.0055 -0.0699,0.0028 -0.1055,0.0092 -0.0267,0.0048 -0.079,0.0117 -0.1057,0.0117 -0.0284,0 -0.0208,0.0022 -0.0179,0.0256 0.0017,0.0142 0.0011,0.0282 0.0028,0.0431 0.0032,0.0274 0.007,0.0564 0.0074,0.087 0.0007,0.054 0.0128,0.1153 0.0128,0.1733l0.0102 0 0.2627 -0.0255c0.0207,-0.0144 0.3523,-0.026 0.4142,-0.0372 0.0238,-0.0044 0.0794,-0.0077 0.1036,-0.0086 0.0117,-0.0004 0.0362,-0.0044 0.0494,-0.0067 0.0158,-0.0028 0.0379,-0.0008 0.0531,-0.0031 0.0334,-0.005 0.0699,-0.0053 0.102,-0.0102 0.0316,-0.0047 0.0727,-0.0082 0.1065,-0.0082 0.0054,-0.0026 0.1023,-0.0124 0.1147,-0.0128 0.0208,-0.0007 0.0401,-0.0037 0.0587,-0.005 0.0121,-0.0008 0.0536,0.0017 0.0536,-0.0102l0 -0.0128 -0.0204 -0.2805c-0.0012,-0.0053 -0.0022,-0.021 -0.0076,-0.0202l-0.2729 0.0279c0.001,-0.0123 0.0381,-0.0567 0.0255,-0.0766l-0.0026 0.0102 -0.0306 0.0664c-0.0443,0 -0.1121,0.0076 -0.1579,0.0129 -0.0487,0.0056 -0.1099,0.005 -0.1573,0.0136 -0.0342,0.0062 -0.1218,0.0143 -0.1566,0.0143 -0.0147,-0.0001 -0.0669,0.001 -0.0806,0.0035 -0.013,0.0024 -0.0275,0.0016 -0.0418,0.0016 -0.0132,-0.0001 -0.0331,0.0062 -0.0331,-0.0051l0 -0.1403c0,-0.0245 0.021,-0.0382 0.0458,-0.0383 0.0263,-0.0002 0.0454,-0.0076 0.0766,-0.0076l0.028 0c0.014,0 0.0306,0.0742 0.0306,0.0943 -0.0039,0.006 -0.0204,0.0223 -0.0204,0.0307l0 0.0153c0,0.0156 0.005,0.0229 0.0204,0.0229 0.0055,0 0.0087,-0.0127 0.0179,-0.0127l0.0025 0c0.0075,0 0.0299,0.0178 0.0434,0.0178l0.0153 0c0.0187,0 0.0357,-0.0184 0.0357,-0.0331 0,-0.025 -0.0153,-0.0319 -0.0153,-0.046l0 -0.0255c0,-0.0063 0.0148,-0.0483 0.0174,-0.054 0.0033,-0.0073 0.0331,-0.0234 0.0424,-0.0289 0.0274,-0.0161 0.0522,-0.049 0.0601,-0.0828 0.0009,0.0001 0.0645,0.0239 0.0722,0.0272 0.0262,0.0112 0.0442,0.0171 0.0741,0.0253 0.0132,0.0036 0.0577,0.0217 0.0713,0.0282 0.0133,0.0063 0.045,0.0394 0.045,0.057l0 0.0102c0,0.0088 -0.0019,0.0099 -0.0025,0.0178z"/>
   <path id="_100356008" class="fil0" d="M125.627 55.4484c0.006,0.0257 0.0545,0.0636 0.0587,0.0791l0.0127 0c0.0001,0 0.0317,0.0112 0.0383,0.0127l0.0127 -0.0127 0.0026 -0.0026 0.0025 -0.0025 0.0128 -0.0179 0.0025 -0.0025 0.0332 -0.0383 -0.0026 -0.0025c-0.0211,-0.0102 -0.0402,-0.0256 -0.051,-0.0459l-0.0382 0c-0.0053,-0.0035 -0.0066,-0.0077 -0.0128,-0.0077l-0.0153 0c0.0003,0.0126 0.0117,0.023 0.0204,0.023l0.0357 0 0 0.0076 -0.0357 0c-0.0111,0 -0.0092,-0.0051 -0.0204,-0.0051l-0.0076 0c-0.0068,0 -0.0076,0.0037 -0.0102,0.0077l0.0255 0.0152c0,0.0087 -0.0027,0.0221 0.0076,0.0205l0.0204 -0.0026c0.0069,0.0047 0.0137,0.0153 0.023,0.0153 0.0088,0 0.0273,-0.0108 0.0357,-0.0127 -0.0042,0.0158 -0.0276,0.028 -0.0485,0.028l-0.0102 0c-0.059,0 -0.0811,-0.0608 -0.0918,-0.0561z"/>
   <path id="_100356200" class="fil3" d="M125.622 55.4433l0 -0.0025 -0.0051 -0.0077 -0.0025 -0.0025 -0.0026 -0.0051 -0.0025 -0.0026 -0.0026 -0.0025 -0.0051 -0.0077 -0.0025 -0.0025 -0.0026 -0.0051 -0.017 -0.021c-0.0055,0.0094 -0.0089,0.0242 -0.0132,0.0341 -0.006,0.0139 -0.0113,0.0149 -0.0182,0.0251 0.0033,0.0399 0.0522,0.0995 0.0918,0.0995l0.0102 0.0102 0.0178 0.0612 -0.0178 -0.0612 0 -0.0077 0.0256 -0.0005 0.0279 0.0031 -0.0611 -0.0059c-0.0152,-0.0094 -0.0493,-0.0209 -0.0511,-0.0426l0.055 0.0398 0.0241 -0.0015c-0.0126,-0.0188 -0.0584,-0.0481 -0.0612,-0.0816l0.0051 0c0.0108,0.0463 0.047,0.0547 0.0612,0.0816l0.0432 0.0057c-0.0127,-0.0118 -0.0282,-0.0049 -0.0371,-0.0143 -0.0086,-0.0091 -0.0148,-0.0161 -0.0234,-0.0251 -0.0106,-0.0112 -0.0348,-0.0427 -0.0363,-0.0607z"/>
   <path id="_100356224" class="fil4" d="M125.831 55.5453c0.018,-0.0041 0.0638,-0.0149 0.0638,-0.0331l0 -0.0204c-0.0101,0.0036 -0.0129,0.0213 -0.0281,0.0306 -0.0084,0.0051 -0.0292,0.0173 -0.0357,0.0229z"/>
   <path id="_100356680" class="fil4" d="M125.55 55.5173c0,0.0113 0.015,0.0178 0.0294,0.0163l-0.0294 -0.024 0 0.0077z"/>
   <path id="_100356728" class="fil3" d="M125.843 55.4714l-0.0051 0.0102 -0.0128 -0.0026 -0.0076 0c-0.0004,0.0185 -0.0505,0.0689 -0.0587,0.0689 -0.0052,0 -0.0046,-0.0053 -0.0051,-0.0102 0.0125,-0.0033 0.0551,-0.0504 0.0587,-0.0638l-0.0077 0 -0.0025 0.0026 -0.0026 0.0025 -0.0025 0.0026 -0.0026 0.0025 -0.0025 0.0026 -0.0026 0.0025 -0.0025 0.0026 -0.0026 0.0025 -0.0025 0.0026 -0.0026 0.0025 -0.0025 0.0026 -0.0026 0.0025 0 0.0077 -0.0178 0.0153 -0.0026 0.0025 -0.0025 0.0026 -0.0026 0.0051 -0.0025 0.0025 -0.0026 0.0026 -0.0025 0.0025c0.0045,0.0113 0.056,0.0212 0.051,-0.0025l0.0471 -0.0349 0.0029 0.0027 -0.009 0.0145c0.0223,-0.0062 0.0457,-0.0505 0.0457,-0.0818l-0.0175 0.0258 -0.0182 0.0023z"/>
   <path id="_100355960" class="fil0" d="M125.56 55.6473l-0.0051 0c-0.0059,0 -0.0127,-0.0068 -0.0127,-0.0127l0 -0.0077c0,-0.0072 0.0088,-0.0127 0.0153,-0.0127 0.0082,0 0.0153,0.007 0.0153,0.0153 0,0.0086 -0.0045,0.0178 -0.0128,0.0178zm0.3316 -0.0178l0 -0.0051c0,-0.006 0.0068,-0.0128 0.0127,-0.0128l0.0051 0c0.006,0 0.0128,0.0068 0.0128,0.0128l0 0.0051c0,0.006 -0.0043,0.0102 -0.0102,0.0102l-0.0102 0c-0.006,0 -0.0102,-0.0042 -0.0102,-0.0102zm0.1989 -0.0077l0 -0.0025c0,-0.0112 0.0101,-0.0374 0.0153,-0.0434 0,0.0176 0.0037,0.1072 -0.0026,0.1072 -0.0068,0 -0.0075,-0.0037 -0.0102,-0.0077 0.0014,-0.006 0.0026,-0.0075 0.0026,-0.0153l0 -0.0102c0,-0.0139 -0.0051,-0.0141 -0.0051,-0.0281zm-0.2602 -0.0765c0.0065,-0.0056 0.0273,-0.0178 0.0357,-0.0229 0.0152,-0.0093 0.018,-0.027 0.0281,-0.0306l0 0.0204c0,0.0182 -0.0458,0.029 -0.0638,0.0331zm0.3137 0.0918l0.0026 -0.0102 0 -0.0051c0.0006,-0.0079 0.0025,-0.009 0.0025,-0.0178l0 -0.0102c0,-0.0176 -0.0317,-0.0507 -0.045,-0.057 -0.0136,-0.0065 -0.0581,-0.0246 -0.0713,-0.0282 -0.0299,-0.0082 -0.0479,-0.0141 -0.0741,-0.0253 -0.0077,-0.0033 -0.0713,-0.0271 -0.0722,-0.0272 -0.0079,0.0338 -0.0327,0.0667 -0.0601,0.0828 -0.0093,0.0055 -0.0391,0.0216 -0.0424,0.0289 -0.0026,0.0057 -0.0174,0.0477 -0.0174,0.054l0 0.0255c0,0.0141 0.0153,0.021 0.0153,0.046 0,0.0147 -0.017,0.0331 -0.0357,0.0331l-0.0153 0c-0.0135,0 -0.0359,-0.0178 -0.0434,-0.0178l-0.0025 0c-0.0092,0 -0.0124,0.0127 -0.0179,0.0127 -0.0154,0 -0.0204,-0.0073 -0.0204,-0.0229l0 -0.0153c0,-0.0084 0.0165,-0.0247 0.0204,-0.0307 0,-0.0201 -0.0166,-0.0943 -0.0306,-0.0943l-0.028 0c-0.0312,0 -0.0503,0.0074 -0.0766,0.0076 -0.0248,0.0001 -0.0458,0.0138 -0.0458,0.0383l0 0.1403c0,0.0113 0.0199,0.005 0.0331,0.0051 0.0143,0 0.0288,0.0008 0.0418,-0.0016 0.0137,-0.0025 0.0659,-0.0036 0.0806,-0.0035 0.0348,0 0.1224,-0.0081 0.1566,-0.0143 0.0474,-0.0086 0.1086,-0.008 0.1573,-0.0136 0.0458,-0.0053 0.1136,-0.0129 0.1579,-0.0129l0.0306 -0.0664z"/>
   <path id="_100355432" class="fil0" d="M125.9 55.2827l-0.0107 0.0123c0.0005,0.0224 0.0043,0.0419 -0.0081,0.053 -0.0068,0.0061 -0.0118,0.0381 -0.0118,0.0494 0,0.0047 0.0122,0.0158 0.0153,0.0204l0 0.0281c0.0383,0.0256 0.1024,0.0382 0.1495,0.057 0.0448,0.018 0.1095,0.0344 0.1208,0.0832l0.0047 0.0051 0.003 -0.0331 0 -0.0204c0,-0.0606 -0.0183,-0.1299 -0.0441,-0.165 -0.0317,-0.0432 -0.0505,-0.0824 -0.0962,-0.113 -0.0258,0.0137 -0.0812,0.023 -0.1224,0.023z"/>
   <path id="_100355648" class="fil4" d="M125.344 55.6628l0.0183 -0.0033 -0.006 -0.0096c0,-0.0354 0.0034,-0.0751 -0.0189,-0.0892l0.0066 0.1021z"/>
   <path id="_100355624" class="fil1" d="M125.56 55.6473c0.0083,0 0.0128,-0.0092 0.0128,-0.0178 0,-0.0083 -0.0071,-0.0153 -0.0153,-0.0153 -0.0065,0 -0.0153,0.0055 -0.0153,0.0127l0 0.0077c0,0.0059 0.0068,0.0127 0.0127,0.0127l0.0051 0z"/>
   <path id="_100355840" class="fil1" d="M125.912 55.6397c0.0059,0 0.0102,-0.0042 0.0102,-0.0102l0 -0.0051c0,-0.006 -0.0068,-0.0128 -0.0128,-0.0128l-0.0051 0c-0.0059,0 -0.0127,0.0068 -0.0127,0.0128l0 0.0051c0,0.006 0.0042,0.0102 0.0102,0.0102l0.0102 0z"/>
   <path id="_100354640" class="fil3" d="M125.65 55.553l0.0178 0.0612 0 0.0025 0.0102 0.0332 0.023 0c0.0143,0 0.0156,0.0051 0.0357,0.0051l0.0154 -0.0047 0.003 -0.0386c0.0001,-0.0076 -0.0023,-0.0058 -0.0031,-0.0154l0.0026 -0.0015 0.0101 0.0169 0.012 -0.0455 -0.0732 -0.0183 -0.0279 -0.0031 -0.0256 0.0005 0 0.0077z"/>
   <path id="_100354592" class="fil4" d="M126.091 55.6218c0,0.014 0.0051,0.0142 0.0051,0.0281l0 0.0102c0,0.0078 -0.0012,0.0093 -0.0026,0.0153 0.0027,0.004 0.0034,0.0077 0.0102,0.0077 0.0063,0 0.0026,-0.0896 0.0026,-0.1072 -0.0052,0.006 -0.0153,0.0322 -0.0153,0.0434l0 0.0025z"/>
   <path id="_100354928" class="fil3" d="M125.736 55.655c-0.0201,0 -0.0214,-0.0051 -0.0357,-0.0051l-0.023 0 -0.0102 -0.0332 0.0076 0.0358c-0.0088,0.0133 -0.0229,0.0188 -0.0229,0.0433l0 0.0077c0,0.0059 0.0068,0.0127 0.0128,0.0127 0.0038,0 0.0083,-0.0102 0.0178,-0.0102 0.0272,0 0.0398,0.0153 0.0561,0.0153l0.0153 0c0.0113,0 0.023,-0.021 0.023,-0.0357 0,-0.0137 -0.0165,-0.0222 -0.0179,-0.0383 -0.0071,0.0103 -0.0089,0.0154 -0.028,0.0154l-0.0102 0c-0.0139,0 -0.0141,-0.0052 -0.0281,-0.0052l-0.0127 0 0 -0.0051 0.0102 0 0.0459 0.0026z"/>
   <path id="_100354976" class="fil0" d="M125.337 55.5607c0.0223,0.0141 0.0189,0.0538 0.0189,0.0892l0.006 0.0096 -0.0183 0.0033 -0.0066 -0.1021zm0.2421 -0.0271c-0.0144,0.0015 -0.0294,-0.005 -0.0294,-0.0163l0 -0.0077 0.0294 0.024zm-0.2716 0.1188l0.0025 0.0051c0.0048,0.0069 0.0233,0.0447 0.0289,0.0554 0.0047,0.0091 0.028,0.0421 0.0349,0.0467l0.107 -0.0082 -0.0031 -0.0887 0.0006 -0.0638c0,-0.0501 0.1056,-0.0459 0.1607,-0.0459 -0.001,-0.0014 -0.0374,-0.0173 -0.0478,-0.0262 -0.0135,-0.0114 -0.0235,-0.0232 -0.0334,-0.038 -0.0121,-0.0184 -0.0089,-0.0465 -0.0251,-0.0398 -0.0168,0.0069 -0.0341,0.0152 -0.0509,0.0208 -0.0108,0.0036 -0.0438,0.0152 -0.0519,0.0195 -0.0163,0.0086 -0.0353,0.0118 -0.0539,0.0175 -0.0333,0.0101 -0.0787,0.022 -0.0787,0.064l0 0.0383c0,0.0149 0.0086,0.0251 0.0102,0.0433z"/>
   <path id="_100354712" class="fil1" d="M125.581 55.8437c0,0.0065 0.0055,0.0153 0.0128,0.0153 0.0086,0 0.0178,-0.0045 0.0178,-0.0127l0 -0.0051c0,-0.0083 -0.0092,-0.0128 -0.0178,-0.0128 -0.0073,0 -0.0128,0.0088 -0.0128,0.0153z"/>
   <path id="_100355192" class="fil0" d="M126.216 55.8412l0 0.0204 0.0204 0 0 -0.0077c0,-0.0091 -0.0012,-0.0204 -0.0102,-0.0204l-0.0025 0c-0.0059,0 -0.0077,0.0018 -0.0077,0.0077z"/>
   <path id="_100354664" class="fil1" d="M125.446 55.8488l0 0.0077c0,0.0061 0.0091,0.0153 0.0153,0.0153 0.0061,0 0.0153,-0.0092 0.0153,-0.0153l0 -0.0051c0,-0.006 -0.0068,-0.0128 -0.0128,-0.0128l-0.0076 0c-0.006,0 -0.0102,0.0043 -0.0102,0.0102z"/>
   <path id="_100353848" class="fil0" d="M126.017 55.8616l0.0051 0.0561c0.0046,0.0031 0.0045,0.0051 0.0102,0.0051l0.0077 0c0.0067,0 0.0107,-0.0076 0.0112,-0.0129l-0.0061 -0.056c-0.0046,-0.0031 -0.0045,-0.0051 -0.0102,-0.0051l-0.0051 0c-0.0056,0 -0.0134,0.0072 -0.0128,0.0128z"/>
   <path id="_100354208" class="fil1" d="M126.116 55.8437l0.0001 -0.007 -0.0384 0.0096c0.0205,0.0004 0.0107,0.0084 0.013,0.0278 0.0015,0.0137 0.0023,0.0237 0.0023,0.041l-0.0102 0 0 0.0077 0.0104 0.0012 0.0411 -0.0058 -0.0005 -0.0031 -0.0127 0 0 -0.0127c0,-0.0217 -0.0103,-0.0587 0.0153,-0.0587 0.0104,0 0.0102,0.0566 0.0102,0.0689l-0.0077 0 0.0001 0.0056 0.0484 -0.0031 0 -0.0051c-0.0322,-0.0007 0.0103,-0.0765 -0.0408,-0.0765l-0.0026 0c-0.0114,0 -0.0185,0.0077 -0.028,0.0102z"/>
   <path id="_100354448" class="fil0" d="M125.989 55.8845c0,-0.0202 0.0223,-0.0408 0.0433,-0.0408 0.0212,0 0.0459,0.0192 0.0459,0.0383l0 0.0102c0,0.0135 -0.0186,0.0357 -0.0331,0.0357l-0.0179 0c-0.0234,0 -0.0382,-0.0198 -0.0382,-0.0434zm-0.5432 0.0026l0.0294 0.0001 0.0088 0.0738 0.0102 0 0.0001 0.006 -0.0893 0.0068 0 -0.0051c-0.0119,0.0032 -0.0083,0.0102 -0.023,0.0102l-0.0127 0c-0.0254,0 -0.0255,-0.0492 -0.0255,-0.074l-0.0128 0c0.0028,-0.0104 0.0293,-0.0099 0.0408,-0.0102l0 0.0077c0,0.0184 -0.0009,0.0663 0.0153,0.0663 0.0056,0 0.0155,-0.0106 0.0163,-0.0129l-0.0061 -0.056 -0.0102 0 0.0001 -0.0045 0.0382 -0.0057 0.0076 0.074 0.0204 0 0.0006 -0.0205 -0.0031 -0.0484 -0.0128 0c0.0015,-0.0057 0.0006,-0.0076 0.0077,-0.0076zm0.1249 0.0102l-0.0076 0 0 0.0153c0,0.0307 -0.054,0.0078 -0.0561,0.0331l0.0127 0c0.0249,0 0.0561,-0.0092 0.0561,0.0204 0,0.021 -0.0139,0.0434 -0.0331,0.0434l-0.0204 0c-0.0064,0 -0.0255,-0.0118 -0.0255,-0.0204 0,-0.0116 0.0054,-0.0133 0.0102,-0.0204 -0.0035,-0.0051 -0.0102,-0.0103 -0.0102,-0.0179 0,-0.0108 0.0041,-0.0155 0.0127,-0.0178 -0.0033,-0.0124 -0.0102,-0.0085 -0.0102,-0.0179l0 -0.0153c0,-0.0073 0.0168,-0.0204 0.023,-0.0204l0.0127 0c0.0078,0 0.0094,0.0012 0.0153,0.0026 0.0205,-0.0138 0.0117,-0.0051 0.0357,-0.0051 0.0121,0 0.0184,-0.0029 0.0274,-0.0051l0.0058 0.079 0.0102 0 -0.0001 0.0048 -0.0229 0.0029 -0.0255 0 0 -0.0051 0.0077 0 0.0006 -0.0256 -0.0032 -0.0433 -0.0051 0c-0.0006,0.0076 -0.0018,0.0128 -0.0102,0.0128zm0.6478 -0.0275l0 0.0071c0,0.0094 0.0057,0.028 0.0127,0.028 0.0299,0 0.0207,-0.017 0.0357,-0.028 0,0.0239 -0.0126,0.0357 -0.0357,0.0357l-0.0076 0c-0.0186,0 -0.0357,-0.0234 -0.0357,-0.0434l0 -0.0076c0,-0.0172 0.0189,-0.0332 0.0357,-0.0332l0.0127 0c0.0183,0 0.0277,0.02 0.028,0.0377l-0.0458 0.0037zm-0.3953 0.0122l0 0.0025c0,0.0059 -0.0018,0.0077 -0.0077,0.0077l-0.0076 0c-0.0059,0 -0.0077,-0.0018 -0.0077,-0.0077l0 -0.0025c0,-0.0131 0.0136,-0.023 0.0255,-0.023l0.0128 0c0.0171,0 0.0263,0.0076 0.0324,0.0179l0.0066 0.0518 0.012 -0.0085c-0.0009,0.0114 -0.0091,0.023 -0.0204,0.023 -0.0094,0 -0.0123,-0.004 -0.0178,-0.0077 -0.0058,0.0039 -0.009,0.0102 -0.0154,0.0102l-0.0204 0c-0.0057,0 -0.0204,-0.0105 -0.0204,-0.0178l0 -0.0051c0,-0.0345 0.0511,-0.0225 0.0511,-0.0332 0,-0.0082 -0.0042,-0.0229 -0.0128,-0.0229l-0.0179 0c0.0032,0.0117 0.0077,0.0064 0.0077,0.0153zm0.0587 -0.0255l0.0128 0.0005 0.0229 -0.0031 0 0.0077c0.0123,-0.0033 0.0085,-0.0102 0.0178,-0.0102l0.0077 0c0.021,0 0.0408,0.0191 0.0408,0.0382l0 0.0179c0,0.0089 -0.018,0.028 -0.0306,0.028l-0.0051 0c-0.011,0 -0.0139,-0.0029 -0.0224,-0.0051l0.0045 0.0434 0.0102 0 0 0.0073 -0.0509 0.0025 -0.0008 -0.0038 0.0122 -0.0036 -0.0089 -0.1121 -0.0102 0 0 -0.0076zm-0.6077 0.1123l0.0008 0.0108 0.0382 -0.0033c0.0055,-0.0083 0.0153,-0.0142 0.0153,-0.028l0 -0.0102 0.0051 0 -0.0006 0.0102 0.003 0.032 -0.107 0.0113 0 -0.0076 0.0127 0 0.0011 -0.0077 -0.0087 -0.1071 -0.0179 0c0.0035,-0.013 0.0447,-0.0102 0.0613,-0.0102l0 0.0051 -0.0135 0.0001 0.0102 0.1046zm0.1894 -0.1302c0.006,0 0.0128,0.0068 0.0128,0.0128l0 0.0051c0,0.0061 -0.0092,0.0153 -0.0153,0.0153 -0.0062,0 -0.0153,-0.0092 -0.0153,-0.0153l0 -0.0077c0,-0.0059 0.0042,-0.0102 0.0102,-0.0102l0.0076 0zm0.1301 -0.0102c0.0086,0 0.0178,0.0045 0.0178,0.0128l0 0.0051c0,0.0082 -0.0092,0.0127 -0.0178,0.0127 -0.0073,0 -0.0128,-0.0088 -0.0128,-0.0153 0,-0.0065 0.0055,-0.0153 0.0128,-0.0153zm0.5228 0.0153c0.0095,-0.0025 0.0166,-0.0102 0.028,-0.0102l0.0026 0c0.0511,0 0.0086,0.0758 0.0408,0.0765l0 0.0051 -0.0484 0.0031 -0.0001 -0.0056 0.0077 0c0,-0.0123 0.0002,-0.0689 -0.0102,-0.0689 -0.0256,0 -0.0153,0.037 -0.0153,0.0587l0 0.0127 0.0127 0 0.0005 0.0031 -0.0411 0.0058 -0.0104 -0.0012 0 -0.0077 0.0102 0c0,-0.0173 -0.0008,-0.0273 -0.0023,-0.041 -0.0023,-0.0194 0.0075,-0.0274 -0.013,-0.0278l0.0384 -0.0096 -0.0001 0.007zm-0.403 0.0102l0 0.0255c0,0.0228 0.006,0.0663 0.0255,0.0663l0.0077 0c0.0194,0 0.0327,-0.026 0.0331,-0.0459l0.0077 0 0 0.0459 -0.0051 0 0 -0.0051c-0.0181,0.0004 -0.0162,0.0102 -0.0408,0.0102l-0.0128 0c-0.0245,0 -0.0484,-0.0341 -0.0484,-0.0612l0 -0.0178c0,-0.0316 0.0288,-0.0536 0.0612,-0.0536l0.0051 0c0.0119,0 0.008,0.0051 0.0255,0.0051l0 -0.0051 0.007 0.0001 0.0032 0.0458 -0.0077 0c-0.0003,-0.0139 -0.023,-0.0408 -0.0357,-0.0408 -0.0159,0 -0.0255,0.0142 -0.0255,0.0306zm-0.6119 0.2551c0.018,0 0.0615,-0.0054 0.0839,-0.0079 0.0216,-0.0024 0.0578,-0.0044 0.0807,-0.0085 0.0238,-0.0042 0.0572,-0.0065 0.08,-0.0092 0.0233,-0.0028 0.0585,-0.0067 0.0817,-0.0076 0.0521,-0.0021 0.1097,-0.0158 0.1632,-0.0153 0.0275,0.0003 0.0571,-0.0053 0.0817,-0.0076 0.0271,-0.0024 0.0577,-0.0034 0.0821,-0.0072 0.0532,-0.0081 0.1167,-0.0028 0.1688,-0.0122 0.0516,-0.0093 0.1093,-0.0096 0.1647,-0.0138 0.0469,-0.0035 0.1156,-0.0085 0.1626,-0.0159 0.0381,-0.006 0.124,-0.0147 0.1638,-0.0147l0 -0.0128 -0.0229 -0.2907 -0.0077 0c-0.023,0 -0.0638,0.0032 -0.0822,0.007 -0.0256,0.0054 -0.0563,0.0033 -0.0808,0.0085 -0.0447,0.0095 -0.1113,0.0071 -0.1602,0.0157 -0.0984,0.0174 -0.2214,0.0155 -0.3269,0.0276 -0.1079,0.0124 -0.2198,0.0137 -0.3369,0.0176 -0.0203,0.0007 -0.0546,0.0104 -0.0789,0.0104 -0.031,-0.0001 -0.0561,0.0077 -0.0816,0.0076 -0.0476,-0.0002 -0.1087,0.0153 -0.1603,0.0152l0.0252 0.3138z"/>
   <path id="_100354112" class="fil1" d="M126.216 55.8412c0,-0.0059 0.0018,-0.0077 0.0077,-0.0077l0.0025 0c0.009,0 0.0102,0.0113 0.0102,0.0204l0 0.0077 -0.0204 0 0 -0.0204zm0.0484 0.0249c-0.0003,-0.0177 -0.0097,-0.0377 -0.028,-0.0377l-0.0127 0c-0.0168,0 -0.0357,0.016 -0.0357,0.0332l0 0.0076c0,0.02 0.0171,0.0434 0.0357,0.0434l0.0076 0c0.0231,0 0.0357,-0.0118 0.0357,-0.0357 -0.015,0.011 -0.0058,0.028 -0.0357,0.028 -0.007,0 -0.0127,-0.0186 -0.0127,-0.028l0 -0.0071 0.0458 -0.0037z"/>
   <path id="_100354400" class="fil0" d="M125.52 55.8922l0 0.0153c0,0.0091 0.0013,0.0204 0.0102,0.0204l0.0026 0c0.0058,0 0.0076,-0.0018 0.0076,-0.0077l0 -0.0204c0,-0.0078 -0.0023,-0.0153 -0.0102,-0.0153l-0.0025 0c-0.0059,0 -0.0077,0.0018 -0.0077,0.0077z"/>
   <path id="_100354184" class="fil1" d="M126.017 55.8616c-0.0006,-0.0056 0.0072,-0.0128 0.0128,-0.0128l0.0051 0c0.0057,0 0.0056,0.002 0.0102,0.0051l0.0061 0.056c-0.0005,0.0053 -0.0045,0.0129 -0.0112,0.0129l-0.0077 0c-0.0057,0 -0.0056,-0.002 -0.0102,-0.0051l-0.0051 -0.0561zm-0.028 0.0229c0,0.0236 0.0148,0.0434 0.0382,0.0434l0.0179 0c0.0145,0 0.0331,-0.0222 0.0331,-0.0357l0 -0.0102c0,-0.0191 -0.0247,-0.0383 -0.0459,-0.0383 -0.021,0 -0.0433,0.0206 -0.0433,0.0408z"/>
   <path id="_100354328" class="fil0" d="M125.923 55.8692l-0.0007 0.0077 0.0032 0.0408c0.0035,0.0052 0.0094,0.0127 0.0179,0.0127 0.0092,0 0.0137,-0.0132 0.0134,-0.023l-0.0032 -0.0356c-0.0037,-0.0054 -0.0056,-0.0128 -0.0128,-0.0128l-0.0076 0c-0.006,0 -0.0102,0.0043 -0.0102,0.0102z"/>
   <path id="_100353944" class="fil0" d="M125.823 55.9126l0 0.0025c0,0.0068 0.002,0.0204 0.0076,0.0204 0.0079,0 0.0154,-0.0023 0.0154,-0.0102l0 -0.0255c-0.0114,0 -0.023,0.0022 -0.023,0.0128z"/>
   <path id="_100354160" class="fil1" d="M125.823 55.9126c0,-0.0106 0.0116,-0.0128 0.023,-0.0128l0 0.0255c0,0.0079 -0.0075,0.0102 -0.0154,0.0102 -0.0056,0 -0.0076,-0.0136 -0.0076,-0.0204l0 -0.0025zm0 -0.0306c0,-0.0089 -0.0045,-0.0036 -0.0077,-0.0153l0.0179 0c0.0086,0 0.0128,0.0147 0.0128,0.0229 0,0.0107 -0.0511,-0.0013 -0.0511,0.0332l0 0.0051c0,0.0073 0.0147,0.0178 0.0204,0.0178l0.0204 0c0.0064,0 0.0096,-0.0063 0.0154,-0.0102 0.0055,0.0037 0.0084,0.0077 0.0178,0.0077 0.0113,0 0.0195,-0.0116 0.0204,-0.023l-0.012 0.0085 -0.0066 -0.0518c-0.0061,-0.0103 -0.0153,-0.0179 -0.0324,-0.0179l-0.0128 0c-0.0119,0 -0.0255,0.0099 -0.0255,0.023l0 0.0025c0,0.0059 0.0018,0.0077 0.0077,0.0077l0.0076 0c0.0059,0 0.0077,-0.0018 0.0077,-0.0077l0 -0.0025z"/>
   <path id="_100353824" class="fil1" d="M125.713 55.8539c0,-0.0164 0.0096,-0.0306 0.0255,-0.0306 0.0127,0 0.0354,0.0269 0.0357,0.0408l0.0077 0 -0.0032 -0.0458 -0.007 -0.0001 0 0.0051c-0.0175,0 -0.0136,-0.0051 -0.0255,-0.0051l-0.0051 0c-0.0324,0 -0.0612,0.022 -0.0612,0.0536l0 0.0178c0,0.0271 0.0239,0.0612 0.0484,0.0612l0.0128 0c0.0246,0 0.0227,-0.0098 0.0408,-0.0102l0 0.0051 0.0051 0 0 -0.0459 -0.0077 0c-0.0004,0.0199 -0.0137,0.0459 -0.0331,0.0459l-0.0077 0c-0.0195,0 -0.0255,-0.0435 -0.0255,-0.0663l0 -0.0255z"/>
   <path id="_100354256" class="fil1" d="M125.923 55.8692c0,-0.0059 0.0042,-0.0102 0.0102,-0.0102l0.0076 0c0.0072,0 0.0091,0.0074 0.0128,0.0128l0.0032 0.0356c0.0003,0.0098 -0.0042,0.023 -0.0134,0.023 -0.0085,0 -0.0144,-0.0075 -0.0179,-0.0127l-0.0032 -0.0408 0.0007 -0.0077zm-0.0408 -0.0051l0.0102 0 0.0089 0.1121 -0.0122 0.0036 0.0008 0.0038 0.0509 -0.0025 0 -0.0073 -0.0102 0 -0.0045 -0.0434c0.0085,0.0022 0.0114,0.0051 0.0224,0.0051l0.0051 0c0.0126,0 0.0306,-0.0191 0.0306,-0.028l0 -0.0179c0,-0.0191 -0.0198,-0.0382 -0.0408,-0.0382l-0.0077 0c-0.0093,0 -0.0055,0.0069 -0.0178,0.0102l0 -0.0077 -0.0229 0.0031 -0.0128 -0.0005 0 0.0076z"/>
   <path id="_100183088" class="fil1" d="M125.512 55.9814c0,-0.0057 0.002,-0.0056 0.0051,-0.0098l0.0331 -0.0029 0.0077 0c0.0059,0 0.0076,0.0018 0.0076,0.0076l0 0.0077c0,0.0065 -0.0086,0.0117 -0.0128,0.0174l-0.0254 0.003c-0.0092,0.0013 -0.0153,-0.0139 -0.0153,-0.023zm0.0178 -0.0969c0.0079,0 0.0102,0.0075 0.0102,0.0153l0 0.0204c0,0.0059 -0.0018,0.0077 -0.0076,0.0077l-0.0026 0c-0.0089,0 -0.0102,-0.0113 -0.0102,-0.0204l0 -0.0153c0,-0.0059 0.0018,-0.0077 0.0077,-0.0077l0.0025 0zm0.0408 0.0128c0.0084,0 0.0096,-0.0052 0.0102,-0.0128l0.0051 0 0.0032 0.0433 -0.0006 0.0256 -0.0077 0 0 0.0051 0.0255 0 0.0229 -0.0029 0.0001 -0.0048 -0.0102 0 -0.0058 -0.079c-0.009,0.0022 -0.0153,0.0051 -0.0274,0.0051 -0.024,0 -0.0152,-0.0087 -0.0357,0.0051 -0.0059,-0.0014 -0.0075,-0.0026 -0.0153,-0.0026l-0.0127 0c-0.0062,0 -0.023,0.0131 -0.023,0.0204l0 0.0153c0,0.0094 0.0069,0.0055 0.0102,0.0179 -0.0086,0.0023 -0.0127,0.007 -0.0127,0.0178 0,0.0076 0.0067,0.0128 0.0102,0.0179 -0.0048,0.0071 -0.0102,0.0088 -0.0102,0.0204 0,0.0086 0.0191,0.0204 0.0255,0.0204l0.0204 0c0.0192,0 0.0331,-0.0224 0.0331,-0.0434 0,-0.0296 -0.0312,-0.0204 -0.0561,-0.0204l-0.0127 0c0.0021,-0.0253 0.0561,-0.0024 0.0561,-0.0331l0 -0.0153 0.0076 0z"/>
   <path id="_100182464" class="fil1" d="M125.484 55.961l-0.0088 -0.0738 -0.0294 -0.0001c-0.0071,0 -0.0062,0.0019 -0.0077,0.0076l0.0128 0 0.0031 0.0484 -0.0006 0.0205 -0.0204 0 -0.0076 -0.074 -0.0382 0.0057 -0.0001 0.0045 0.0102 0 0.0061 0.056c-0.0008,0.0023 -0.0107,0.0129 -0.0163,0.0129 -0.0162,0 -0.0153,-0.0479 -0.0153,-0.0663l0 -0.0077c-0.0115,0.0003 -0.038,-0.0002 -0.0408,0.0102l0.0128 0c0,0.0248 0.0001,0.074 0.0255,0.074l0.0127 0c0.0147,0 0.0111,-0.007 0.023,-0.0102l0 0.0051 0.0893 -0.0068 -0.0001 -0.006 -0.0102 0z"/>
   <path id="_100183016" class="fil1" d="M125.264 55.8642l0.0135 -0.0001 0 -0.0051c-0.0166,0 -0.0578,-0.0028 -0.0613,0.0102l0.0179 0 0.0087 0.1071 -0.0011 0.0077 -0.0127 0 0 0.0076 0.107 -0.0113 -0.003 -0.032 0.0006 -0.0102 -0.0051 0 0 0.0102c0,0.0138 -0.0098,0.0197 -0.0153,0.028l-0.0382 0.0033 -0.0008 -0.0108 -0.0102 -0.1046z"/>
   <path id="_100182728" class="fil0" d="M125.512 55.9814c0,0.0091 0.0061,0.0243 0.0153,0.023l0.0254 -0.003c0.0042,-0.0057 0.0128,-0.0109 0.0128,-0.0174l0 -0.0077c0,-0.0058 -0.0017,-0.0076 -0.0076,-0.0076l-0.0077 0 -0.0331 0.0029c-0.0031,0.0042 -0.0051,0.0041 -0.0051,0.0098z"/>
  </g>
 </g>
</svg>
